<?xml version="1.0" ?><svg viewBox="0 0 24 24" xmlns="http://www.w3.org/2000/svg" xmlns:xlink="http://www.w3.org/1999/xlink"><defs><linearGradient gradientUnits="userSpaceOnUse" id="a" x1="3.51874" x2="23.85364" y1="3.51874" y2="23.85364"><stop offset="0" stop-color="#fff" stop-opacity="0"/><stop offset="1" stop-color="#fff" stop-opacity="0.1"/></linearGradient></defs><title/><path d="M23.31592,15.36914a.50094.50094,0,0,0,.28174-.331,12.05077,12.05077,0,1,0-8.76612,8.6123.49975.49975,0,0,0,.35352-.65332,2.92557,2.92557,0,0,1,.71582-3.13623.56869.56869,0,0,0,.13916-.46533A2.70714,2.70714,0,0,1,16,19a2.99822,2.99822,0,0,1,2.94922-3.00342l.10058.0083a.50129.50129,0,0,0,.35059-.14306,2.95849,2.95849,0,0,1,3.481-.50733A.50412.50412,0,0,0,23.31592,15.36914ZM8,12a4,4,0,1,1,4,4A4.00458,4.00458,0,0,1,8,12Z"/><path d="M12,1a10.97637,10.97637,0,0,1,8.40857,3.92291c-.77319.86927-1.43713.64514-2.25964.35A3.49876,3.49876,0,0,0,17,5a1.95355,1.95355,0,0,0-1.35547.689,4.226,4.226,0,0,0-1.06921,2.04755A4.94775,4.94775,0,0,0,12,7a4.9842,4.9842,0,0,0-2.52155,9.29272,2.1021,2.1021,0,0,1-.57611,1.23365A1.39836,1.39836,0,0,1,8,18c-.19092,0-.394-.01758-.60693-.03516A4.17212,4.17212,0,0,0,3.651,19.14258,10.98583,10.98583,0,0,1,12,1Z" fill="#fff"/><path d="M18.85547,15.00244A4.00506,4.00506,0,0,0,15,19a2.77157,2.77157,0,0,0,.02246.333A3.96351,3.96351,0,0,0,14,22a3.69836,3.69836,0,0,0,.08691.79053A10.82248,10.82248,0,0,1,12,23a10.95777,10.95777,0,0,1-7.67029-3.13068c.00733-.00653.01679-.00879.02381-.0158a3.19815,3.19815,0,0,1,2.95654-.89209C7.55225,18.98145,7.78271,19,8,19a2.34169,2.34169,0,0,0,1.62012-.77734,3.122,3.122,0,0,0,.79919-1.50312A4.9339,4.9339,0,0,0,12,17a4.99424,4.99424,0,0,0,3.50507-8.55756,3.15374,3.15374,0,0,1,.85723-2.0567A1.062,1.062,0,0,1,17,6a2.815,2.815,0,0,1,.811.21436,2.70109,2.70109,0,0,0,3.21087-.48981A10.93025,10.93025,0,0,1,23,12a10.80737,10.80737,0,0,1-.23584,2.21582A3.95958,3.95958,0,0,0,18.85547,15.00244Z" fill="#bf6a1e"/><path d="M21.02191,5.72455a2.90227,2.90227,0,0,1-.61633.47394,10.89956,10.89956,0,0,1,1.42956,5.39428q0,.27018-.01458.54328a1.55743,1.55743,0,0,1-1.56629,1.4588,3.99268,3.99268,0,0,0-2.23224.7373,1.70626,1.70626,0,0,1-.75305.30036,3.96554,3.96554,0,0,0-1.37665.467,5.00756,5.00756,0,0,1-1.26959,1.13824,3.9608,3.9608,0,0,0-.7876,2.355,2.77157,2.77157,0,0,0,.02246.333,3.96351,3.96351,0,0,0-1.02246,2.667,3.69774,3.69774,0,0,0,.08692.79053,10.6955,10.6955,0,0,1-5.15241-.2334,10.80083,10.80083,0,0,0,6.31726.64063A3.69836,3.69836,0,0,1,14,22a3.96351,3.96351,0,0,1,1.02246-2.667A2.77157,2.77157,0,0,1,15,19a4.00506,4.00506,0,0,1,3.85547-3.99756,3.95958,3.95958,0,0,1,3.90869-.78662A10.80737,10.80737,0,0,0,23,12,10.93025,10.93025,0,0,0,21.02191,5.72455Z" opacity="0.2"/><circle cx="5.5" cy="9.5" fill="#d50000" r="0.5"/><circle cx="17.35065" cy="3.5" fill="#d50000" r="0.5"/><circle cx="4.5" cy="6.5" fill="#a0f" r="0.5"/><circle cx="7.5" cy="16.5" fill="#ff9100" r="0.5"/><circle cx="8.17465" cy="3" fill="#ff9100" r="0.5"/><circle cx="9.5" cy="3.5" fill="#f50057" r="0.5"/><circle cx="6.13155" cy="15.24842" fill="#00e5ff" r="0.5"/><circle cx="12.5" cy="5" fill="#f50057" r="0.5"/><circle cx="3.32853" cy="14.74921" fill="#f50057" r="0.5"/><circle cx="6.91777" cy="9.02587" fill="#f50057" r="0.5"/><circle cx="6.04512" cy="16.99921" fill="#f50057" r="0.5"/><circle cx="2.5" cy="12.5" fill="#00c853" r="0.5"/><circle cx="11.20428" cy="2" fill="#00c853" r="0.5"/><circle cx="14.16486" cy="6" fill="#00c853" r="0.5"/><circle cx="7.5" cy="6.5" fill="#00e5ff" r="0.5"/><circle cx="5.5" cy="12.5" fill="#2962ff" r="0.5"/><circle cx="2.83742" cy="7.65306" fill="#2962ff" r="0.5"/><circle cx="3.82971" cy="17" fill="#2962ff" r="0.5"/><circle cx="6.5" cy="4.5" fill="#2962ff" r="0.5"/><circle cx="4.5" cy="15.5" fill="#ffd600" r="0.5"/><circle cx="10.5" cy="5.5" fill="#43a047" r="0.5"/><circle cx="14.5" cy="3.5" fill="#ffee58" r="0.5"/><circle cx="3" cy="9.77148" fill="#ffee58" r="0.5"/><circle cx="12.5" cy="2.5" fill="#9575cd" r="0.5"/><path d="M23.5,19H23a.5.5,0,0,0,0,1h.5a.5.5,0,0,0,0-1Z" fill="#bf6a1e"/><path d="M19.14648,21.64648l-.5.5a.5.5,0,1,0,.707.707l.5-.5a.5.5,0,0,0-.707-.707Z" fill="#93450e"/><path d="M23.5,23H23a.5.5,0,0,0,0,1h.5a.5.5,0,0,0,0-1Z" fill="#93450e"/><path d="M23.31592,15.36914a.50094.50094,0,0,0,.28174-.331,12.05077,12.05077,0,1,0-8.76612,8.6123.49975.49975,0,0,0,.35352-.65332,2.92557,2.92557,0,0,1,.71582-3.13623.56869.56869,0,0,0,.13916-.46533A2.70714,2.70714,0,0,1,16,19a2.99822,2.99822,0,0,1,2.94922-3.00342l.10058.0083a.50129.50129,0,0,0,.35059-.14306,2.95849,2.95849,0,0,1,3.481-.50733A.50412.50412,0,0,0,23.31592,15.36914ZM12,16a4,4,0,1,1,4-4A4.00458,4.00458,0,0,1,12,16Zm11.5,3H23a.5.5,0,0,0,0,1h.5a.5.5,0,0,0,0-1Zm-4.35352,2.64648-.5.5a.5.5,0,1,0,.707.707l.5-.5a.5.5,0,0,0-.707-.707ZM23.5,23H23a.5.5,0,0,0,0,1h.5a.5.5,0,0,0,0-1Z" fill="url(#a)"/></svg>