<?xml version="1.0" ?><svg height="64" viewBox="0 0 64 64" width="64" xmlns="http://www.w3.org/2000/svg" xmlns:xlink="http://www.w3.org/1999/xlink"><defs><style>.cls-1,.cls-17{fill:#89643d;}.cls-2{fill:#af8756;}.cls-3{fill:#bd925d;}.cls-4{fill:#af7838;}.cls-5{fill:#6e5031;}.cls-6{fill:#4a230a;}.cls-7{fill:#2f1e08;}.cls-8{fill:#ffe99a;}.cls-9{fill:#ff2f0a;}.cls-10{fill:#00c40a;}.cls-11{fill:#59380f;opacity:0.46;}.cls-12{fill:#ffd8a6;}.cls-13{fill:url(#linear-gradient);}.cls-14{fill:url(#linear-gradient-2);}.cls-15{fill:url(#linear-gradient-3);}.cls-16{fill:url(#linear-gradient-4);}.cls-17{opacity:0.49;}.cls-18{fill:#ff8142;}.cls-19{fill:#ff5d30;}.cls-20{fill:#ffe9cc;}.cls-21{fill:#ffd7a3;}.cls-22{fill:#ffaf59;}.cls-23{fill:#68c21d;}.cls-24{fill:#89ff26;}.cls-25{fill:#dcf95f;}</style><linearGradient gradientTransform="translate(71.822 70.867) rotate(139.733)" gradientUnits="userSpaceOnUse" id="linear-gradient" x1="14.678" x2="9.061" y1="49.425" y2="60.746"><stop offset="0" stop-color="#56ff4a"/><stop offset="1" stop-color="#21ff2d"/></linearGradient><linearGradient gradientTransform="matrix(-0.551, 0.834, -0.834, -0.551, 79.435, 59.696)" id="linear-gradient-2" x1="9.16" x2="3.543" xlink:href="#linear-gradient" y1="43.922" y2="55.243"/><linearGradient gradientTransform="translate(82.012 62.805) rotate(120.135)" id="linear-gradient-3" x1="-4.343" x2="-9.961" xlink:href="#linear-gradient" y1="32.733" y2="44.054"/><linearGradient gradientTransform="translate(74.878 -16.686) rotate(68.356)" id="linear-gradient-4" x1="38.431" x2="32.814" xlink:href="#linear-gradient" y1="32.636" y2="43.957"/></defs><title/><g id="fish"><rect class="cls-1" height="28.582" rx="2.728" ry="2.728" transform="translate(-0.109 0.105) rotate(-0.192)" width="60.365" x="1.215" y="18.349"/><path class="cls-2" d="M5.019,45.77a2.339,2.339,0,0,1-2.373-2.287L2.573,21.907A2.34,2.34,0,0,1,4.94,19.6l52.828-.176a2.341,2.341,0,0,1,2.382,2.286l.072,21.576a2.242,2.242,0,0,1-.687,1.622,2.4,2.4,0,0,1-1.68.681Z"/><path class="cls-3" d="M57.777,19.178v.5A2.089,2.089,0,0,1,59.9,21.715l.072,21.576a2.088,2.088,0,0,1-2.117,2.052L5.019,45.52A2.088,2.088,0,0,1,2.9,43.482L2.823,21.907a2.088,2.088,0,0,1,2.118-2.052l52.828-.177.008-.5m0,0h-.009l-52.828.177a2.586,2.586,0,0,0-2.616,2.553L2.4,43.484A2.585,2.585,0,0,0,5.019,46.02h.009l52.828-.177a2.585,2.585,0,0,0,2.616-2.554L60.4,21.714a2.584,2.584,0,0,0-2.624-2.536Z"/><path class="cls-4" d="M2.417,29.667S25.25,22.333,37.5,22.917s18.667,3.666,22.833,4.166V28.5s-15.25-4.417-22.75-4.167S9.25,29.083,2.333,33.667Z"/><path class="cls-4" d="M60.417,37.917s-9-8.584-21.084-9.834S12.75,45.917,12.75,45.917h1.083S28.667,27.5,39.333,28.833,60.417,40.917,60.417,41.167Z"/><rect class="cls-5" height="19.142" rx="4.72" ry="4.72" transform="translate(-0.108 0.036) rotate(-0.192)" width="10.62" x="5.326" y="22.739"/><path class="cls-6" d="M15.1,36.685a4.026,4.026,0,0,1-3.911,4.132l-.981,0a4.025,4.025,0,0,1-3.938-4.106l-.029-8.467a4.027,4.027,0,0,1,3.911-4.132l.981,0a4.025,4.025,0,0,1,3.938,4.106Z"/><path class="cls-7" d="M14.555,36.233a3.532,3.532,0,0,1-3.432,3.627l-.861,0a3.533,3.533,0,0,1-3.457-3.6L6.78,28.828A3.533,3.533,0,0,1,10.213,25.2l.861,0a3.533,3.533,0,0,1,3.457,3.6Z"/><path class="cls-8" d="M12.083,31.875s-1,1.208-.583,1.542a1.425,1.425,0,0,0,1.458-.084A1.7,1.7,0,0,0,12.083,31.875Z"/><path class="cls-8" d="M8.083,36.542s-.583.208-.125.708a1.015,1.015,0,0,0,1.084.25A1.085,1.085,0,0,0,8.083,36.542Z"/><path class="cls-8" d="M12.125,37.042s-1,.25-.875.708a.732.732,0,0,0,.625.5l.625-.042S12.75,37.333,12.125,37.042Z"/><path class="cls-8" d="M7.939,28.165s.2.587.706.135a1.013,1.013,0,0,0,.266-1.079A1.084,1.084,0,0,0,7.939,28.165Z"/><path class="cls-8" d="M11,30.708s-.583.209-.125.709a1.013,1.013,0,0,0,1.083.25A1.085,1.085,0,0,0,11,30.708Z"/><path class="cls-8" d="M10.083,38.458S9.083,39.667,9.5,40a1.428,1.428,0,0,0,1.458-.083A1.7,1.7,0,0,0,10.083,38.458Z"/><path class="cls-8" d="M13.083,27.083s-1,1.209-.583,1.542a1.428,1.428,0,0,0,1.458-.083A1.7,1.7,0,0,0,13.083,27.083Z"/><path class="cls-8" d="M12.583,34.167s-1,1.208-.583,1.541a1.423,1.423,0,0,0,1.458-.083A1.7,1.7,0,0,0,12.583,34.167Z"/><path class="cls-8" d="M9.583,29.708s-1,.25-.875.709a.732.732,0,0,0,.625.5l.625-.042S10.208,30,9.583,29.708Z"/><path class="cls-8" d="M10.208,35.167s-1,.25-.875.708a.732.732,0,0,0,.625.5l.625-.042S10.833,35.458,10.208,35.167Z"/><path class="cls-8" d="M11.875,25.083s-1,.25-.875.709a.732.732,0,0,0,.625.5l.625-.042S12.5,25.375,11.875,25.083Z"/><path class="cls-9" d="M10.313,32.725c.081.118-.033.338-.255.491h0c-.222.154-.467.183-.549.065l-.442-.638c-.081-.118.033-.337.255-.491h0c.221-.154.467-.183.549-.065Z"/><path class="cls-9" d="M13.13,38.862c-.127.066-.331-.075-.455-.315h0c-.124-.239-.121-.487.006-.552l.689-.357c.127-.066.331.075.455.315h0c.124.239.121.487-.006.552Z"/><path class="cls-9" d="M11.43,29.009c-.049.134-.295.167-.548.074h0c-.253-.094-.418-.279-.368-.413l.269-.728c.05-.134.295-.167.548-.073h0c.253.093.418.278.369.412Z"/><path class="cls-10" d="M8.24,33.325c-.049.134-.295.167-.548.074h0c-.253-.094-.418-.279-.368-.413l.269-.728c.05-.134.295-.167.548-.073h0c.253.093.418.278.369.412Z"/><path class="cls-10" d="M11.638,35.176c-.049.134-.294.167-.548.073h0c-.253-.093-.418-.278-.368-.412l.27-.728c.049-.134.294-.167.547-.074h0c.254.094.418.279.369.413Z"/><path class="cls-10" d="M10.532,26.534c-.05.134-.295.167-.548.073h0c-.253-.094-.418-.278-.369-.412l.27-.729c.049-.134.295-.167.548-.073h0c.253.094.418.278.368.412Z"/><path class="cls-11" d="M11.687,24.313a5.826,5.826,0,0,0-2.375.187c-1.25.375-1.937,1.438-.375,2.625a46.268,46.268,0,0,1,4.5,4.188c.5.562,1.375.375,1.375-.938s-.062-2.562-.062-2.562A4.119,4.119,0,0,0,11.687,24.313Z"/><ellipse class="cls-12" cx="12.281" cy="25.5" rx="0.688" ry="0.906" transform="translate(-15.806 28.993) rotate(-71.372)"/><ellipse class="cls-12" cx="13.813" cy="27.187" rx="0.3" ry="0.395" transform="translate(-16.363 31.592) rotate(-71.372)"/><path class="cls-11" d="M6.508,35.6a5.959,5.959,0,0,0,.406,2.526,3.635,3.635,0,0,0,3.191,2.165l1.091.059s.937-.063.125-.969S6.508,33.722,6.508,35.6Z"/><ellipse class="cls-12" cx="8.154" cy="38.742" rx="0.3" ry="0.395" transform="translate(-31.163 34.094) rotate(-71.372)"/><path class="cls-13" d="M26.889,42.785s.949,1.508,2.036.734a1.61,1.61,0,0,0,.49-1.358s1.61.486,1.931-.869-.1-1.519-.1-1.519,1.341-.777.821-1.784-1.028-1.169-1.028-1.169,1.422-1.031.563-2.118-1.365-1.08-1.365-1.08A2.363,2.363,0,0,0,28.26,31.2s-.951-1.676-2.3-1.743a1.929,1.929,0,0,0-2.343,1.634,6.3,6.3,0,0,0-.052,2.534s-.419.259-.658,1.36a1.883,1.883,0,0,0,.53,1.766,2.119,2.119,0,0,0-.736,1.868,2.713,2.713,0,0,0,1.545,1.922A2.525,2.525,0,0,0,26.889,42.785Z"/><path class="cls-14" d="M36.064,43.766s1.333,1.182,2.16.134a1.608,1.608,0,0,0,.089-1.44s1.683.015,1.61-1.376-.525-1.429-.525-1.429,1.069-1.122.288-1.942-1.315-.834-1.315-.834,1.076-1.389-.053-2.192-1.613-.654-1.613-.654a2.363,2.363,0,0,0-2.574-1.773s-1.382-1.343-2.7-1.028-1.838.916-1.791,2.226a6.29,6.29,0,0,0,.661,2.447s-.329.366-.25,1.489a1.885,1.885,0,0,0,1,1.548,2.119,2.119,0,0,0-.183,2,2.713,2.713,0,0,0,2.022,1.413A2.525,2.525,0,0,0,36.064,43.766Z"/><path class="cls-15" d="M54.248,43.351s1.4,1.1,2.164.009a1.606,1.606,0,0,0,.006-1.443s1.68-.083,1.527-1.467-.607-1.4-.607-1.4,1-1.182.176-1.956-1.361-.756-1.361-.756.993-1.449-.18-2.185-1.648-.56-1.648-.56a2.363,2.363,0,0,0-2.672-1.621s-1.458-1.26-2.754-.87a1.928,1.928,0,0,0-1.659,2.326,6.284,6.284,0,0,0,.8,2.405s-.308.384-.164,1.5a1.886,1.886,0,0,0,1.091,1.487,2.119,2.119,0,0,0-.067,2.006A2.712,2.712,0,0,0,51,42.123,2.527,2.527,0,0,0,54.248,43.351Z"/><path class="cls-16" d="M58.284,32.812s1.732-.417,1.346-1.695c-.21-.7-1.131-.9-1.131-.9s.975-1.371-.207-2.107-1.472-.387-1.472-.387-.309-1.519-1.428-1.348a2.209,2.209,0,0,0-1.437.6s-.523-1.678-1.827-1.211-1.459.948-1.459.948a2.362,2.362,0,0,0-2.927,1.1s-1.893.365-2.388,1.625a1.929,1.929,0,0,0,.8,2.743,6.3,6.3,0,0,0,2.385.858s.111.479,1.078,1.058a1.884,1.884,0,0,0,1.843.062A2.119,2.119,0,0,0,53,35.454a2.715,2.715,0,0,0,2.315-.85A2.527,2.527,0,0,0,58.284,32.812Z"/><path class="cls-17" d="M21.723,31.366s11.164,7.643,14.694,9.551c3.331,1.8,12.5,6.5,18.583-2.335a6.365,6.365,0,0,0,1.108-4.274c-.306-2.892-1.973-7.586-9.063-10.513a24.271,24.271,0,0,0-9.22-1.8c-3.908-.007-10.636-.07-11.936-.417-1.856-.494-3.243,3.733-.252,4.281a10.19,10.19,0,0,1,1.021.239,1.248,1.248,0,0,1-.646,2.409,8.577,8.577,0,0,1-1.044-.338C21.44,26.788,20.451,30.5,21.723,31.366Z"/><path class="cls-18" d="M21.893,30.869s11.164,7.642,14.694,9.55c3.331,1.8,12.5,6.5,18.583-2.334a6.366,6.366,0,0,0,1.107-4.274c-.3-2.893-1.972-7.586-9.062-10.513a24.275,24.275,0,0,0-9.22-1.8c-3.908-.007-10.636-.071-11.936-.417-1.856-.5-3.244,3.732-.252,4.281a10.1,10.1,0,0,1,1.02.239,1.247,1.247,0,0,1-.645,2.408,8.406,8.406,0,0,1-1.044-.338C21.61,26.29,20.621,30,21.893,30.869Z"/><path class="cls-19" d="M34.592,21.473c1.677,2.616,4.53,7.122,5.916,9.651l.967-.918a75.784,75.784,0,0,0-5.216-8.719C35.722,21.484,35.163,21.48,34.592,21.473Z"/><path class="cls-19" d="M47.363,23.364a21.371,21.371,0,0,0-4.686,6.061l1.756.163a16.5,16.5,0,0,1,4.932-5.256A21.122,21.122,0,0,0,47.363,23.364Z"/><path class="cls-19" d="M54.048,28.249c-2.075.282-5.477.972-7.62,2.613L47.506,32.2a29.209,29.209,0,0,1,7.713-2.059A11.521,11.521,0,0,0,54.048,28.249Z"/><path class="cls-19" d="M48.83,42.9a9.923,9.923,0,0,0,2-.8A29.47,29.47,0,0,1,46.2,35.284l-1.694.3C45.082,38.433,47.482,41.41,48.83,42.9Z"/><path class="cls-19" d="M40.734,34.2a20.968,20.968,0,0,0-.406,7.961,19.411,19.411,0,0,0,2.192.682,16.678,16.678,0,0,1-.356-7.612Z"/><path class="cls-19" d="M29.793,36.169a73.513,73.513,0,0,0,10.549-3.345L40.216,31.5c-3.078,1.13-9.264,2.941-11.9,3.7C28.806,35.519,29.3,35.845,29.793,36.169Z"/><circle class="cls-20" cx="43.754" cy="32.569" r="3.889"/><circle class="cls-21" cx="43.758" cy="32.572" r="3.155"/><path class="cls-22" d="M47.4,36.517a21.521,21.521,0,0,0,3.664,4.8,13.17,13.17,0,0,0,2.952-2.845l-.721-.558.964.17a4.817,4.817,0,0,0,.935-2.1L49.225,34.3a7.187,7.187,0,0,1-1.116,1.441l.537.647-.76-.358Z"/><path class="cls-22" d="M49.738,32.971s3.929-.013,5.432.056c0,0-.106-.831-.207-1.371a38.789,38.789,0,0,0-5.231.5Z"/><path class="cls-22" d="M42.623,37.818a6.391,6.391,0,0,0,1.4.082A28.585,28.585,0,0,0,46.4,42.275a12.63,12.63,0,0,1-2.808.054A28.6,28.6,0,0,1,42.623,37.818Z"/><path class="cls-22" d="M39.819,35.186A49.291,49.291,0,0,0,37.933,40.1l-1.254-.664s1.848-3.18,2.83-4.648Z"/><path class="cls-22" d="M46.841,29.1A32.076,32.076,0,0,1,52.1,27.17a15.377,15.377,0,0,0-2.28-1.919,17.688,17.688,0,0,0-3.67,3.152A2.242,2.242,0,0,1,46.841,29.1Z"/><path class="cls-22" d="M32.33,36.918s1.276.834,1.841,1.2l4.991-3.667-.321-.479A66.785,66.785,0,0,1,32.33,36.918Z"/><path class="cls-22" d="M39.6,22.566s1.573,5.214,1.777,6.141a1.9,1.9,0,0,1,.783-.316l.343-1.733.057,1.812a17.145,17.145,0,0,1,3.054-4.937s-2.555-.671-3.477-.77l-.215,1.37-.27-1.438Z"/><path class="cls-22" d="M28.052,32.914s8.2-1.259,10.084-2.105c0,0-7.3-.89-8.391-1.272S28.052,32.914,28.052,32.914Z"/><path class="cls-22" d="M31.132,22.7s6.151,5.566,7.258,7.31c0,0-6.586-3.278-7.7-3.559S31.132,22.7,31.132,22.7Z"/><circle class="cls-23" cx="50.438" cy="26.871" r="5.234"/><path class="cls-24" d="M48.761,25.733,47.548,24.52a.521.521,0,0,0-.812.106,4.291,4.291,0,0,0-.539,1.335.521.521,0,0,0,.5.645h1.7A.511.511,0,0,0,48.761,25.733Z"/><path class="cls-24" d="M48.4,27.294H46.722a.52.52,0,0,0-.5.655,4.332,4.332,0,0,0,.555,1.293.52.52,0,0,0,.807.1l1.173-1.173A.511.511,0,0,0,48.4,27.294Z"/><path class="cls-24" d="M50.808,23.175v1.711a.511.511,0,0,0,.873.361l1.2-1.2a.521.521,0,0,0-.1-.807,4.307,4.307,0,0,0-1.32-.562A.521.521,0,0,0,50.808,23.175Z"/><path class="cls-24" d="M49.472,22.664a4.292,4.292,0,0,0-1.342.554.52.52,0,0,0-.1.809l1.22,1.22a.511.511,0,0,0,.873-.361V23.162A.521.521,0,0,0,49.472,22.664Z"/><path class="cls-24" d="M52.528,26.606h1.651a.52.52,0,0,0,.5-.643,4.26,4.26,0,0,0-.518-1.3.52.52,0,0,0-.813-.109l-1.18,1.18A.511.511,0,0,0,52.528,26.606Z"/><path class="cls-24" d="M52.167,28.167l1.14,1.14a.521.521,0,0,0,.809-.1,4.3,4.3,0,0,0,.533-1.258.52.52,0,0,0-.5-.654H52.528A.511.511,0,0,0,52.167,28.167Z"/><path class="cls-24" d="M50.808,29.014v1.605a.521.521,0,0,0,.651.5A4.276,4.276,0,0,0,52.71,30.6a.519.519,0,0,0,.1-.81l-1.134-1.134A.511.511,0,0,0,50.808,29.014Z"/><path class="cls-24" d="M49.247,28.653l-1.154,1.154a.52.52,0,0,0,.108.812,4.278,4.278,0,0,0,1.274.512.52.52,0,0,0,.645-.5V29.014A.511.511,0,0,0,49.247,28.653Z"/><path class="cls-25" d="M52.048,23.446a.394.394,0,0,1,.616-.092c.342.32-.457,1.1-.685,1.347S51.477,24.222,52.048,23.446Z"/><path class="cls-25" d="M53.97,25.646s.484-.1.5.371-1.1.452-1.437.468S53.018,25.791,53.97,25.646Z"/><path class="cls-25" d="M53.87,28.535a.394.394,0,0,1,.092.616c-.32.343-1.1-.456-1.347-.684S53.094,27.965,53.87,28.535Z"/></g></svg>