<?xml version="1.0" ?><svg data-name="tod mun" height="64" id="tod_mun" viewBox="0 0 64 64" width="64" xmlns="http://www.w3.org/2000/svg" xmlns:xlink="http://www.w3.org/1999/xlink"><defs><style>.cls-1{fill:#ffe9cc;}.cls-2{fill:#ffd59e;}.cls-3{fill:#ffb657;}.cls-4{fill:url(#linear-gradient);}.cls-5{fill:#3b6b16;}.cls-6{fill:#d11b1b;}.cls-7{fill:url(#linear-gradient-2);}.cls-8{fill:url(#linear-gradient-3);}.cls-9{fill:url(#linear-gradient-4);}.cls-10{fill:url(#linear-gradient-5);}.cls-11{fill:url(#linear-gradient-6);}.cls-12{fill:#ffc06e;}.cls-13{fill:#fb0;}.cls-14{fill:#ffe99a;}.cls-15{fill:#ff2f0a;}.cls-16{fill:#00c40a;}.cls-17{fill:#fff2d7;opacity:0.47;}</style><linearGradient gradientTransform="matrix(0.905, 0.424, -0.424, 0.905, 20.504, -9.583)" gradientUnits="userSpaceOnUse" id="linear-gradient" x1="31.739" x2="31.241" y1="42.592" y2="51.892"><stop offset="0" stop-color="#ff8521"/><stop offset="1" stop-color="#e85f1e"/></linearGradient><linearGradient gradientTransform="matrix(-0.912, 0.411, -0.411, -0.912, 65.322, 26.59)" id="linear-gradient-2" x1="24.771" x2="24.272" xlink:href="#linear-gradient" y1="15.473" y2="24.774"/><linearGradient gradientTransform="translate(36.862 -7.437) rotate(97.397)" id="linear-gradient-3" x1="44.649" x2="44.151" xlink:href="#linear-gradient" y1="7.222" y2="16.522"/><linearGradient gradientTransform="translate(52.548 45.17) rotate(-138.149)" id="linear-gradient-4" x1="18.755" x2="18.257" xlink:href="#linear-gradient" y1="4.897" y2="14.197"/><linearGradient gradientTransform="matrix(-0.912, 0.411, -0.411, -0.912, 65.322, 26.59)" id="linear-gradient-5" x1="25.1" x2="24.602" xlink:href="#linear-gradient" y1="-9.977" y2="-0.676"/><linearGradient gradientTransform="matrix(-0.912, 0.411, -0.411, -0.912, 65.322, 26.59)" id="linear-gradient-6" x1="37.089" x2="36.591" xlink:href="#linear-gradient" y1="15.729" y2="25.029"/></defs><title/><circle class="cls-1" cx="33.513" cy="32.882" r="27.37"/><circle class="cls-2" cx="33.564" cy="32.932" r="23.384"/><path class="cls-2" d="M30.832,54.776a3.313,3.313,0,0,1-1.7-.5,1.092,1.092,0,0,1-.2.018.772.772,0,0,1-.517-.183c-.182-.158-.474-.472-.621-.635a2.284,2.284,0,0,1-.292.018,1.8,1.8,0,0,1-.981-.263,3.654,3.654,0,0,1-.791-.694,2.5,2.5,0,0,1-1.606-1.017c-.272-.5-.475-.894-.576-1.095h-.028a3.148,3.148,0,0,1-.973-.129c-.418-.148-.674-.843-.76-1.23a1.027,1.027,0,0,1,.11-.91c.085-.083-.019-.37-.1-.5l-.159-.3c-.377-.087-.726-.29-.686-.632.027-.237.193-1.221.244-1.517l-.271-.509a1.554,1.554,0,0,1-.08-1.163,1.586,1.586,0,0,1,.172-.357,8.562,8.562,0,0,1-1.38.231h-.007c-.118,0-.212.009-.311.018-.129.012-.265.024-.4.024a1.422,1.422,0,0,1-.755-.185,1.68,1.68,0,0,1-.7.149,2.061,2.061,0,0,1-.951-.245c-.683-.355-.846-.756-.867-1.017l-.546-.141-.044-.039a1.6,1.6,0,0,1-.424-.625.885.885,0,0,1-.57-.475,2.087,2.087,0,0,1-1.774-1.109,3.218,3.218,0,0,1-.22-2.191.85.85,0,0,1-.058-.731c.094-.22.3-.594.415-.784a1.96,1.96,0,0,1-.154-1.287,3.714,3.714,0,0,1,.419-.964,2.5,2.5,0,0,1,.482-1.84c.39-.41.707-.725.867-.883a3.3,3.3,0,0,1-.182-.992c.017-.583,1.1-1.325,1.605-1.325a.5.5,0,0,1,.236.055h.015a.711.711,0,0,0,.433-.248l.235-.242a1.358,1.358,0,0,1,.048-.509.518.518,0,0,1-.041-.065,2.924,2.924,0,0,0-.174-.245,1.854,1.854,0,0,1-.472-1.072,1.842,1.842,0,0,1-.786-1.457,1.335,1.335,0,0,1,.409-1.273l-.166-.538.009-.059a1.586,1.586,0,0,1,.31-.688l0-.006a.878.878,0,0,1,.106-.723,2.066,2.066,0,0,1,.015-2.1,3.213,3.213,0,0,1,1.749-1.337.848.848,0,0,1,.59-.435c.237-.034.667-.051.885-.058a1.974,1.974,0,0,1,1.015-.806,3.717,3.717,0,0,1,1.008-.15h.033a2.789,2.789,0,0,1,1.515-.588,1.494,1.494,0,0,1,.3.031c.555.118.99.221,1.207.275a3.3,3.3,0,0,1,.75-.676.739.739,0,0,1,.37-.085c.545,0,1.643.446,1.677.985,0,.056.076.119.188.17l.029-.061a2.067,2.067,0,0,1,.016-2.1,3.208,3.208,0,0,1,1.748-1.337A.847.847,0,0,1,29.309,13c.237-.034.666-.051.885-.058a1.975,1.975,0,0,1,1.015-.807,3.683,3.683,0,0,1,1-.149h.036a2.778,2.778,0,0,1,1.514-.588,1.5,1.5,0,0,1,.3.031c.555.118.988.221,1.206.275a3.3,3.3,0,0,1,.75-.676.739.739,0,0,1,.37-.085c.545,0,1.643.446,1.677.985.009.117.294.225.446.25l.33.073a1.15,1.15,0,0,1,.6-.247.434.434,0,0,1,.327.138c.162.174.8.941.993,1.171l.563.126a1.56,1.56,0,0,1,.936.7,2.186,2.186,0,0,1,.113,1.733l.015.02a1.033,1.033,0,0,1,.186.739.629.629,0,0,1-.182.319l.074.344a1.861,1.861,0,0,1,.756.75c.009,0,.083,0,.112,0a2.1,2.1,0,0,1,1.649-.855,2.033,2.033,0,0,1,.276.019,3.213,3.213,0,0,1,1.932,1.062.831.831,0,0,1,.634.361c.128.2.317.588.411.786a1.959,1.959,0,0,1,1.149.6,3.631,3.631,0,0,1,.557.891,2.5,2.5,0,0,1,1.245,1.437c.118.554.2.993.237,1.215a3.253,3.253,0,0,1,.922.412c.358.261.4,1,.374,1.4-.024.307-.107.7-.369.838-.1.055-.086.36-.048.508l.065.33c.337.192.612.487.476.8-.1.218-.537,1.113-.671,1.381l.113.567a1.548,1.548,0,0,1-.258,1.136,2.183,2.183,0,0,1-1.539.806l-.013.021a.944.944,0,0,1-.721.481.613.613,0,0,1-.244-.05l-.281.2a1.54,1.54,0,0,1-1.5,1.537l-.522-.089a.571.571,0,0,1-.5.264c-.029,0-.058,0-.088-.005a1.469,1.469,0,0,1-.715.186,1.642,1.642,0,0,1-1.025-.383l-.611-.149a2.034,2.034,0,0,1-.5.067,1.039,1.039,0,0,1-.714-.239l-.691-.618s-.325-.233-.557-.44a1.863,1.863,0,0,1-.348-1.06l-.288-.183a1.728,1.728,0,0,1-1.382-.558,11.23,11.23,0,0,1-1.325-.957,2.331,2.331,0,0,0-.724-.421,1.01,1.01,0,0,1-.441-.272c-.17-.228-.059-.65.08-.992a2.006,2.006,0,0,1-.079-.651.839.839,0,0,1-.091-.769c-.071-.129-.179-.323-.245-.458a2.043,2.043,0,0,1-.194-.738,9.479,9.479,0,0,1-1.065.6,2.33,2.33,0,0,0-.679.491.99.99,0,0,1-.427.293h-.015a1.381,1.381,0,0,1-.859-.474,2.045,2.045,0,0,1-.629-.191,1.315,1.315,0,0,1-.15.009.749.749,0,0,1-.589-.237c-.146.014-.367.033-.518.04h-.016a2.346,2.346,0,0,1-.335-.024,1.633,1.633,0,0,1-.739.736l-.383.5a1.359,1.359,0,0,1-.647,1.038l-.845.381s-.344.2-.628.332a.705.705,0,0,1-.3.054,2.9,2.9,0,0,1-.813-.165l-.283.188a2.151,2.151,0,0,1-.684.866,1.755,1.755,0,0,1,.1.733l.222.588a1.354,1.354,0,0,1,.543,1.1l-.119.919s-.008.4-.047.708c-.042.323-.45.7-.677.887l.012.337a1.766,1.766,0,0,1,.321,1.459,11.09,11.09,0,0,1-.039,1.635,1.752,1.752,0,0,0-.012.273,1.723,1.723,0,0,1,.365.1l.628-.033a1.687,1.687,0,0,1,.826-.265.883.883,0,0,1,.383.082l.839.393s.379.129.66.261a1.846,1.846,0,0,1,.638.915l.325.091a2.455,2.455,0,0,1,.683-.105,1.288,1.288,0,0,1,.806.242,11.265,11.265,0,0,1,1.544.534,2.317,2.317,0,0,0,.814.2.994.994,0,0,1,.5.134c.228.169.243.6.209.972a2.07,2.07,0,0,1,.264.6.845.845,0,0,1,.308.711c.106.1.264.257.367.367a2.014,2.014,0,0,1,.505,1.079,1.778,1.778,0,0,1-.232.935,1,1,0,0,1,.307.55,10.165,10.165,0,0,1-.225,2.563,2.994,2.994,0,0,0-.074.291,1.843,1.843,0,0,1-.507,1.055,1.84,1.84,0,0,1-.595,1.546,1.542,1.542,0,0,1-1.046.54h0a.868.868,0,0,1-.187-.021l-.3.475-.05.03a1.6,1.6,0,0,1-.724.214l0,0a.879.879,0,0,1-.619.391,2.071,2.071,0,0,1-1.6,1.354A2.872,2.872,0,0,1,30.832,54.776Z"/><path class="cls-3" d="M36.393,11.2c.514,0,1.408.435,1.429.751.024.377.653.481.653.481l.431.1a1.164,1.164,0,0,1,.539-.267.183.183,0,0,1,.142.057c.19.205,1.039,1.228,1.039,1.228l.647.144s1.4.295.842,2.19a.121.121,0,0,0,.073.161s.393.549-.072.808l.134.618a1.592,1.592,0,0,1,.816.844,1.137,1.137,0,0,1,.188-.014,1.757,1.757,0,0,1,.206.012,1.9,1.9,0,0,1,1.527-.865,1.872,1.872,0,0,1,.242.017,2.982,2.982,0,0,1,1.841,1.056h.019a.632.632,0,0,1,.527.252c.172.272.456.882.456.882a1.809,1.809,0,0,1,1.124.533,3.221,3.221,0,0,1,.551.909s1.029.506,1.2,1.31.262,1.363.262,1.363a3.41,3.41,0,0,1,.993.415c.359.262.372,1.638.038,1.813s-.176.792-.176.792l.086.433s.579.281.468.538-.7,1.447-.7,1.447l.13.65s.3,1.4-1.661,1.656a.12.12,0,0,0-.118.131s-.211.358-.507.358a.429.429,0,0,1-.261-.1l-.512.372a1.342,1.342,0,0,1-1.267,1.415l-.664-.12a.337.337,0,0,1-.345.3.7.7,0,0,1-.141-.017,1.186,1.186,0,0,1-.662.2A1.413,1.413,0,0,1,45,33.679l-.73-.179a1.741,1.741,0,0,1-.491.076.812.812,0,0,1-.547-.175l-.691-.62s-.326-.232-.557-.438-.275-1.018-.275-1.018l-.454-.288h-.064a1.49,1.49,0,0,1-1.214-.494,11.566,11.566,0,0,1-1.336-.959c-.494-.442-1-.477-1.132-.658s.143-.821.143-.821-.159-.617-.071-.716c0,0-.336-.42-.07-.716,0,0-.208-.364-.314-.577a1.776,1.776,0,0,1-.15-1.025.667.667,0,0,1,.032-.08c-.017,0-.032.012-.049.015a11.592,11.592,0,0,1-1.418.834c-.6.272-.839.718-1.059.768a.112.112,0,0,1-.032,0c-.231,0-.662-.466-.662-.466s-.628-.1-.683-.225a.968.968,0,0,1-.22.025.47.47,0,0,1-.463-.25s-.417.042-.655.053h-.048a1.865,1.865,0,0,1-.448-.061,1.351,1.351,0,0,1-.747.825l-.459.595s-.067.709-.51.909l-.846.382s-.345.2-.627.331a.478.478,0,0,1-.193.032,3.109,3.109,0,0,1-.848-.192l-.447.3a1.76,1.76,0,0,1-.813.923,1.44,1.44,0,0,1,.174.879l.265.7s.568.43.5.912l-.119.92s-.008.4-.047.707-.684.8-.684.8l.02.537s.572.743.317,1.333a11.483,11.483,0,0,1-.036,1.645,2.091,2.091,0,0,0,0,.532,1.567,1.567,0,0,1,.556.125l.751-.038a1.522,1.522,0,0,1,.746-.262.641.641,0,0,1,.277.058l.84.394s.379.129.659.26.556.895.556.895l.518.145a2.241,2.241,0,0,1,.678-.115,1.031,1.031,0,0,1,.688.219,11.572,11.572,0,0,1,1.556.534c.6.282,1.091.17,1.273.3s.1.828.1.828.33.545.273.665c0,0,.443.3.274.665,0,0,.3.289.467.463a1.772,1.772,0,0,1,.438.938,1.9,1.9,0,0,1-.311.976.759.759,0,0,1,.389.524,10.227,10.227,0,0,1-.216,2.437c-.128.379-.132,1.012-.619,1.32a1.528,1.528,0,0,1-.5,1.476,1.286,1.286,0,0,1-.87.466.478.478,0,0,1-.287-.081l-.38.6a1.367,1.367,0,0,1-.626.178.8.8,0,0,1-.18-.02s.146.313-.6.45a1.866,1.866,0,0,1-1.449,1.322,2.616,2.616,0,0,1-.416.033,3.036,3.036,0,0,1-1.652-.515.765.765,0,0,1-.241.039.532.532,0,0,1-.354-.122c-.243-.212-.69-.714-.69-.714a2.011,2.011,0,0,1-.387.035,1.555,1.555,0,0,1-.844-.222,3.221,3.221,0,0,1-.789-.711,2.386,2.386,0,0,1-1.525-.911c-.394-.721-.644-1.229-.644-1.229s-.07,0-.18,0a2.965,2.965,0,0,1-.89-.115c-.419-.148-.828-1.462-.558-1.726s-.06-.809-.06-.809l-.207-.39s-.635-.1-.6-.38.257-1.588.257-1.588l-.312-.585s-.687-1.255,1.114-2.064a.121.121,0,0,0,.075-.16,1.09,1.09,0,0,1,.11-.251L22.4,42.1a.757.757,0,0,1-.38.53,10.273,10.273,0,0,1-2.375.537h-.036c-.2,0-.438.042-.685.042a1.1,1.1,0,0,1-.737-.23,1.331,1.331,0,0,1-.721.194,1.8,1.8,0,0,1-.836-.217c-.918-.476-.719-.985-.719-.985l-.689-.179a1.25,1.25,0,0,1-.4-.72.183.183,0,0,1-.119.04c-.108,0-.282-.081-.493-.476a.447.447,0,0,1-.047,0,1.852,1.852,0,0,1-1.653-.98,2.983,2.983,0,0,1-.171-2.116.649.649,0,0,1-.1-.593c.127-.3.47-.874.47-.874a1.814,1.814,0,0,1-.2-1.229,3.2,3.2,0,0,1,.438-.968,2.386,2.386,0,0,1,.4-1.73c.568-.595.975-.988.975-.988a3.411,3.411,0,0,1-.22-1.053c.012-.4.93-1.082,1.355-1.082a.243.243,0,0,1,.119.026.343.343,0,0,0,.16.039,1.012,1.012,0,0,0,.593-.343l.308-.316s-.066-.452.079-.625a1.6,1.6,0,0,1-.119-.166c-.2-.344-.682-.759-.6-1.329a1.53,1.53,0,0,1-.8-1.337c-.077-1.032.461-1.129.461-1.129l-.211-.681a1.25,1.25,0,0,1,.4-.715s-.333-.093.049-.75a1.865,1.865,0,0,1-.06-1.96,2.981,2.981,0,0,1,1.711-1.257.651.651,0,0,1,.451-.4c.318-.046.991-.059.991-.059a1.811,1.811,0,0,1,.943-.813,3.454,3.454,0,0,1,.937-.14c.074,0,.116,0,.116,0a2.65,2.65,0,0,1,1.432-.592,1.191,1.191,0,0,1,.252.026c.8.17,1.352.311,1.352.311a3.432,3.432,0,0,1,.781-.74.492.492,0,0,1,.245-.052c.514,0,1.408.435,1.428.751s.433.43.59.467a1.451,1.451,0,0,1,.165-.381,1.868,1.868,0,0,1-.061-1.961,2.985,2.985,0,0,1,1.712-1.257.648.648,0,0,1,.45-.4c.319-.047.992-.06.992-.06a1.807,1.807,0,0,1,.942-.812,3.414,3.414,0,0,1,.937-.14c.075,0,.117,0,.117,0a2.645,2.645,0,0,1,1.432-.592,1.182,1.182,0,0,1,.251.026c.8.17,1.353.311,1.353.311a3.4,3.4,0,0,1,.781-.741.5.5,0,0,1,.244-.051m0-.5h0a.981.981,0,0,0-.494.118,3.23,3.23,0,0,0-.714.614c-.242-.058-.614-.145-1.066-.24a1.664,1.664,0,0,0-.355-.037,2.935,2.935,0,0,0-1.6.588,4.027,4.027,0,0,0-1.028.159,2.139,2.139,0,0,0-1.079.8c-.236.009-.573.026-.788.057a1.052,1.052,0,0,0-.717.473,3.46,3.46,0,0,0-1.8,1.416,2.178,2.178,0,0,0-.326,1.333,2.907,2.907,0,0,0-1.37-.449.978.978,0,0,0-.495.119,3.2,3.2,0,0,0-.713.613c-.242-.058-.615-.144-1.066-.24a1.731,1.731,0,0,0-.355-.037,2.942,2.942,0,0,0-1.6.589,3.988,3.988,0,0,0-1.028.159,2.13,2.13,0,0,0-1.078.8c-.236.009-.573.026-.788.058a1.052,1.052,0,0,0-.717.472,3.476,3.476,0,0,0-1.8,1.416,2.293,2.293,0,0,0-.079,2.232,1.135,1.135,0,0,0-.1.678,1.9,1.9,0,0,0-.28.694l-.019.117.035.113.1.33a1.692,1.692,0,0,0-.372,1.369,2.147,2.147,0,0,0,.794,1.575,2.21,2.21,0,0,0,.513,1.086c.053.07.105.137.145.2a1.623,1.623,0,0,0-.033.371l-.15.154a.888.888,0,0,1-.222.182.774.774,0,0,0-.292-.055c-.629,0-1.833.83-1.854,1.567a3.186,3.186,0,0,0,.147.93c-.177.175-.446.447-.764.781a2.646,2.646,0,0,0-.556,1.951,3.96,3.96,0,0,0-.405.958,2.131,2.131,0,0,0,.115,1.338c-.116.206-.279.5-.365.7a1.048,1.048,0,0,0,.026.859,3.459,3.459,0,0,0,.259,2.274,2.308,2.308,0,0,0,1.86,1.241,1.142,1.142,0,0,0,.522.441,1.9,1.9,0,0,0,.444.6l.089.078.114.029.335.087A1.689,1.689,0,0,0,16.4,43.4a2.314,2.314,0,0,0,1.066.273,1.971,1.971,0,0,0,.688-.123,1.739,1.739,0,0,0,.77.159c.146,0,.29-.013.427-.025.092-.008.179-.017.258-.017h0a6.418,6.418,0,0,0,.985-.136,1.787,1.787,0,0,0,.121,1.3l.228.429c-.063.374-.2,1.215-.231,1.446-.048.4.241.726.765.876l.1.187a.922.922,0,0,1,.106.266,1.244,1.244,0,0,0-.134,1.094c.026.12.279,1.185.921,1.411a3.167,3.167,0,0,0,.93.143c.113.221.29.56.511.966A2.647,2.647,0,0,0,25.6,52.768a3.958,3.958,0,0,0,.79.677,2.029,2.029,0,0,0,1.118.3c.069,0,.133,0,.191-.007.16.174.393.419.557.563a1.023,1.023,0,0,0,.683.245,1.293,1.293,0,0,0,.144-.009,3.564,3.564,0,0,0,1.749.485,3.15,3.15,0,0,0,.5-.039,2.293,2.293,0,0,0,1.746-1.393,1.131,1.131,0,0,0,.58-.364,1.908,1.908,0,0,0,.71-.24l.1-.061.063-.1.183-.289h.061a1.777,1.777,0,0,0,1.223-.612,2.151,2.151,0,0,0,.679-1.628,2.212,2.212,0,0,0,.49-1.1,2.432,2.432,0,0,1,.067-.265,10.128,10.128,0,0,0,.234-2.688,1.227,1.227,0,0,0-.254-.551,1.835,1.835,0,0,0,.181-.919,2.265,2.265,0,0,0-.57-1.22c-.081-.086-.2-.2-.294-.3a1.1,1.1,0,0,0-.338-.742A2.448,2.448,0,0,0,35.954,42a1.213,1.213,0,0,0-.316-1.117,1.184,1.184,0,0,0-.624-.182,2.088,2.088,0,0,1-.733-.173,11.379,11.379,0,0,0-1.54-.537,1.542,1.542,0,0,0-.916-.263,2.668,2.668,0,0,0-.684.095L31,39.782a1.841,1.841,0,0,0-.718-.934c-.26-.122-.587-.238-.683-.271l-.816-.383a1.142,1.142,0,0,0-.489-.105,1.9,1.9,0,0,0-.9.269l-.515.026c-.049-.017-.1-.033-.148-.046l0-.042a11.133,11.133,0,0,0,.043-1.63,1.972,1.972,0,0,0-.326-1.577l0-.143a1.832,1.832,0,0,0,.67-.967c.037-.285.049-.632.051-.734l.116-.893a1.56,1.56,0,0,0-.579-1.274l-.182-.482a2.03,2.03,0,0,0-.06-.6,2.477,2.477,0,0,0,.592-.79l.122-.082a2.923,2.923,0,0,0,.775.14.947.947,0,0,0,.4-.077c.262-.118.563-.29.651-.341l.821-.371a1.564,1.564,0,0,0,.78-1.162l.314-.407a1.934,1.934,0,0,0,.71-.662c.053,0,.105.007.155.007h.01l.06,0c.118,0,.279-.018.415-.03a1.035,1.035,0,0,0,.681.228c.035,0,.069,0,.1,0a2.5,2.5,0,0,0,.556.166,1.475,1.475,0,0,0,.909.5h.056l.088-.016a1.184,1.184,0,0,0,.544-.357,2.119,2.119,0,0,1,.609-.444,7.989,7.989,0,0,0,.774-.415,2.218,2.218,0,0,0,.157.438c.053.106.13.248.2.368a1.1,1.1,0,0,0,.11.809,2.472,2.472,0,0,0,.073.571,1.217,1.217,0,0,0-.019,1.16,1.188,1.188,0,0,0,.546.354,2.114,2.114,0,0,1,.652.376,11.227,11.227,0,0,0,1.32.958,1.958,1.958,0,0,0,1.483.622l.122.077a1.838,1.838,0,0,0,.419,1.1c.214.192.493.4.576.457l.671.6a1.294,1.294,0,0,0,.881.3,2.244,2.244,0,0,0,.5-.06l.5.123a1.867,1.867,0,0,0,1.135.4,1.728,1.728,0,0,0,.767-.182h.036a.834.834,0,0,0,.6-.24l.319.057.057.011.059,0a1.786,1.786,0,0,0,1.728-1.651l.086-.063a.894.894,0,0,0,.2.023,1.134,1.134,0,0,0,.886-.524,2.353,2.353,0,0,0,1.591-.89,1.788,1.788,0,0,0,.3-1.335l-.095-.477c.168-.34.546-1.1.638-1.318.161-.372-.022-.764-.481-1.059l-.042-.208a.9.9,0,0,1-.024-.286,1.247,1.247,0,0,0,.443-1.008c.009-.123.074-1.216-.476-1.617a3.222,3.222,0,0,0-.849-.4c-.045-.245-.117-.621-.212-1.073a2.652,2.652,0,0,0-1.294-1.562,4.027,4.027,0,0,0-.562-.876,2.138,2.138,0,0,0-1.168-.662c-.1-.212-.256-.513-.371-.7a1.059,1.059,0,0,0-.723-.464,3.47,3.47,0,0,0-2.023-1.073,2.353,2.353,0,0,0-.307-.021,2.3,2.3,0,0,0-1.68.757,2.161,2.161,0,0,0-.617-.565l-.024-.111a.881.881,0,0,0,.155-.336,1.216,1.216,0,0,0-.174-.859,2.36,2.36,0,0,0-.17-1.816,1.79,1.79,0,0,0-1.1-.813L40.9,13.09c-.242-.291-.789-.946-.947-1.116a.68.68,0,0,0-.509-.218,1.265,1.265,0,0,0-.652.229l-.209-.046a.9.9,0,0,1-.271-.093c-.12-.718-1.372-1.151-1.92-1.151Z"/><path class="cls-2" d="M44.683,50.2a1.416,1.416,0,0,1-.786-.484,2.007,2.007,0,0,1-.629-.191,1.3,1.3,0,0,1-.15.01.749.749,0,0,1-.59-.238c-.146.014-.367.033-.517.04H42a2.071,2.071,0,0,1-1.132-.319,1.775,1.775,0,0,1-.559-.785.941.941,0,0,1-.123.008.971.971,0,0,1-.494-.133,10.087,10.087,0,0,1-1.8-1.838,2.924,2.924,0,0,0-.174-.245,1.854,1.854,0,0,1-.472-1.072,1.842,1.842,0,0,1-.786-1.457,1.335,1.335,0,0,1,.409-1.273l-.166-.538.009-.059a1.592,1.592,0,0,1,.309-.688l0,0a.88.88,0,0,1,.106-.724,2.066,2.066,0,0,1,.015-2.1,3.213,3.213,0,0,1,1.749-1.337.848.848,0,0,1,.59-.435c.237-.034.667-.051.885-.058a1.974,1.974,0,0,1,1.015-.806,3.717,3.717,0,0,1,1.008-.15h.033a2.789,2.789,0,0,1,1.515-.588,1.494,1.494,0,0,1,.3.031c.555.118.99.221,1.207.275a3.3,3.3,0,0,1,.75-.676.739.739,0,0,1,.37-.085c.545,0,1.643.446,1.677.985.008.117.294.226.446.251l.33.073a1.146,1.146,0,0,1,.6-.248.429.429,0,0,1,.325.138c.163.175.8.941.994,1.171l.563.126a1.556,1.556,0,0,1,.935.7,2.188,2.188,0,0,1,.114,1.734l.015.02a1.03,1.03,0,0,1,.186.738.631.631,0,0,1-.182.32l.072.339a1.541,1.541,0,0,1,.8,1.995l-.293.441a.546.546,0,0,1,.084.2.626.626,0,0,1-.083.442,1.541,1.541,0,0,1-.886,1.514l-.383.5a1.359,1.359,0,0,1-.647,1.038l-.845.381s-.344.2-.628.332a.7.7,0,0,1-.295.054h0a2.9,2.9,0,0,1-.813-.165l-.282.187a1.762,1.762,0,0,1-1.072,1.041,11.236,11.236,0,0,1-1.412.825,2.313,2.313,0,0,0-.677.491,1,1,0,0,1-.428.293Z"/><path class="cls-3" d="M46.56,34.528c.514,0,1.408.435,1.428.751.025.377.654.481.654.481l.431.1a1.164,1.164,0,0,1,.539-.267.188.188,0,0,1,.142.057c.189.206,1.039,1.228,1.039,1.228l.647.145s1.4.3.842,2.189a.121.121,0,0,0,.073.161s.393.55-.072.808l.134.619a1.343,1.343,0,0,1,.781,1.732l-.378.558a.351.351,0,0,1,.057.556,1.267,1.267,0,0,1-.787,1.373l-.459.595s-.067.709-.51.909l-.846.382s-.345.2-.627.331a.478.478,0,0,1-.193.032,3.109,3.109,0,0,1-.848-.192l-.447.3s-.332.877-.969.97a11.546,11.546,0,0,1-1.417.834c-.6.273-.84.718-1.059.769a.176.176,0,0,1-.033,0c-.23,0-.661-.466-.661-.466s-.629-.1-.683-.225a.943.943,0,0,1-.22.026.471.471,0,0,1-.463-.251s-.417.043-.655.053h-.055A1.777,1.777,0,0,1,41,48.806a1.9,1.9,0,0,1-.539-.872.747.747,0,0,1-.282.053.721.721,0,0,1-.368-.1A10.2,10.2,0,0,1,38.1,46.139c-.2-.344-.682-.759-.6-1.329a1.53,1.53,0,0,1-.8-1.337c-.077-1.032.461-1.129.461-1.129l-.211-.681a1.25,1.25,0,0,1,.405-.715s-.333-.093.049-.75a1.865,1.865,0,0,1-.06-1.96,2.981,2.981,0,0,1,1.711-1.257.651.651,0,0,1,.451-.4c.318-.046.991-.059.991-.059a1.811,1.811,0,0,1,.943-.813,3.454,3.454,0,0,1,.937-.14c.074,0,.116,0,.116,0a2.65,2.65,0,0,1,1.432-.592,1.191,1.191,0,0,1,.252.026c.8.17,1.352.311,1.352.311a3.432,3.432,0,0,1,.781-.74.492.492,0,0,1,.245-.052m0-.5a.978.978,0,0,0-.5.119,3.2,3.2,0,0,0-.713.613c-.242-.058-.615-.144-1.066-.24a1.731,1.731,0,0,0-.355-.037,2.942,2.942,0,0,0-1.6.589,3.988,3.988,0,0,0-1.028.159,2.13,2.13,0,0,0-1.078.8c-.236.009-.573.026-.788.058a1.052,1.052,0,0,0-.717.472,3.476,3.476,0,0,0-1.8,1.416,2.293,2.293,0,0,0-.079,2.232,1.135,1.135,0,0,0-.1.678,1.9,1.9,0,0,0-.28.694l-.019.117.035.113.1.33a1.692,1.692,0,0,0-.372,1.369A2.147,2.147,0,0,0,37,45.085a2.21,2.21,0,0,0,.513,1.086,2.532,2.532,0,0,1,.158.223,10.1,10.1,0,0,0,1.889,1.927,1.212,1.212,0,0,0,.583.165,1.836,1.836,0,0,0,.581.736,2.264,2.264,0,0,0,1.22.362l.077,0c.118-.005.279-.017.415-.029a1.038,1.038,0,0,0,.681.228c.035,0,.068,0,.1,0a2.428,2.428,0,0,0,.556.166,1.472,1.472,0,0,0,.908.5h.057l.088-.016a1.182,1.182,0,0,0,.544-.356,2.094,2.094,0,0,1,.608-.444,11.332,11.332,0,0,0,1.41-.82,1.97,1.97,0,0,0,1.17-1.105l.121-.081a2.923,2.923,0,0,0,.775.14.947.947,0,0,0,.4-.077c.262-.118.563-.29.651-.342l.821-.37a1.564,1.564,0,0,0,.78-1.162l.314-.407a1.785,1.785,0,0,0,.973-1.655.847.847,0,0,0,.075-.545.77.77,0,0,0-.038-.129l.182-.269.033-.049.021-.055a1.785,1.785,0,0,0-.811-2.247l-.023-.1a.878.878,0,0,0,.156-.336,1.21,1.21,0,0,0-.175-.859,2.355,2.355,0,0,0-.17-1.816,1.792,1.792,0,0,0-1.1-.813l-.475-.106c-.242-.291-.789-.945-.947-1.116a.685.685,0,0,0-.509-.218,1.257,1.257,0,0,0-.652.23l-.209-.047a.882.882,0,0,1-.272-.093c-.12-.718-1.372-1.151-1.919-1.151Z"/><path class="cls-4" d="M21.152,44.587s-.687-1.255,1.114-2.064a.121.121,0,0,0,.075-.16s.162-.657.661-.472l.382-.5a1.343,1.343,0,0,1,.807-1.72l.67-.076s-.069-.374.385-.405a1.265,1.265,0,0,1,1.554-.3l.751-.038s.582-.41,1.023-.2l.84.394s.379.129.659.26.556.895.556.895l.518.145s.881-.318,1.366.1a11.572,11.572,0,0,1,1.556.534c.6.282,1.091.17,1.273.3s.1.828.1.828.33.545.273.665c0,0,.443.3.274.665,0,0,.3.289.466.463a1.765,1.765,0,0,1,.439.938,1.9,1.9,0,0,1-.311.976.759.759,0,0,1,.389.524,10.227,10.227,0,0,1-.216,2.437c-.128.379-.132,1.012-.619,1.32a1.528,1.528,0,0,1-.5,1.476c-.733.73-1.157.385-1.157.385l-.38.6a1.253,1.253,0,0,1-.806.158s.146.313-.6.45a1.866,1.866,0,0,1-1.449,1.322,2.984,2.984,0,0,1-2.068-.482.649.649,0,0,1-.595-.083c-.243-.212-.69-.714-.69-.714a1.812,1.812,0,0,1-1.231-.187,3.221,3.221,0,0,1-.789-.711,2.386,2.386,0,0,1-1.525-.911c-.394-.721-.644-1.229-.644-1.229a3.429,3.429,0,0,1-1.07-.111c-.419-.148-.828-1.462-.558-1.726s-.06-.809-.06-.809l-.207-.39s-.635-.1-.6-.38.257-1.588.257-1.588Z"/><path class="cls-5" d="M26.679,42.78c-.123.122-.41.032-.64-.2h0c-.229-.233-.315-.521-.192-.643l.671-.661c.124-.122.41-.032.64.2h0c.23.234.316.521.192.643Z"/><path class="cls-5" d="M26.34,48.879c.11.135-.007.411-.261.618h0c-.253.207-.548.265-.658.131l-.595-.73c-.109-.135.007-.412.261-.618h0c.254-.207.549-.266.658-.131Z"/><path class="cls-5" d="M34.386,48.5c-.069.159-.368.184-.669.055h0c-.3-.129-.489-.363-.421-.522l.371-.866c.068-.16.367-.185.668-.056h0c.3.129.49.363.422.522Z"/><path class="cls-5" d="M31.82,51.908c.046.168-.173.373-.489.458h0c-.316.086-.609.02-.655-.147l-.247-.91c-.045-.167.174-.372.49-.458h0c.316-.086.609-.02.655.148Z"/><path class="cls-5" d="M22.922,45.673c-.162-.062-.2-.36-.083-.666h0c.117-.306.343-.5.505-.442l.88.335c.162.062.2.36.083.666h0c-.117.306-.342.5-.5.442Z"/><path class="cls-5" d="M31.893,43.241c.073.157-.108.4-.405.535h0c-.3.138-.6.123-.67-.035l-.4-.854c-.074-.157.108-.4.405-.535h0c.3-.138.6-.122.67.035Z"/><path class="cls-5" d="M28.985,47.316c-.123.122-.41.032-.639-.2h0c-.23-.233-.316-.521-.193-.642l.671-.662c.124-.121.41-.031.64.2h0c.23.233.316.521.193.643Z"/><path class="cls-6" d="M34.052,50.321a11.487,11.487,0,0,1-1.524-.531c-.6-.282-.064.4.564.754S34.76,50.9,34.052,50.321Z"/><path class="cls-6" d="M23.716,42.113s-.992.941-.791,1.035,1,.47,1.093.146S24.258,42,23.716,42.113Z"/><path class="cls-6" d="M26.931,50.774s.686-.29.993.1-.179.772-.179.772S26.619,51.178,26.931,50.774Z"/><path class="cls-6" d="M34.159,42.79s-.714,1.133-.24,1.294.765-1.109.765-1.109S34.4,42.413,34.159,42.79Z"/><path class="cls-6" d="M27.373,46.7s-.533.484-.182.648.61-.386.61-.386Z"/><path class="cls-7" d="M41.273,13.685s1.4.295.842,2.19a.121.121,0,0,0,.073.161s.393.549-.072.808l.134.618a1.342,1.342,0,0,1,.781,1.732l-.378.559a.351.351,0,0,1,.057.556,1.267,1.267,0,0,1-.786,1.373l-.459.6s-.068.709-.511.909l-.846.381s-.344.2-.626.331-1.042-.16-1.042-.16l-.447.3s-.332.877-.968.97a11.592,11.592,0,0,1-1.418.834c-.6.272-.839.718-1.059.768s-.693-.462-.693-.462-.629-.1-.684-.225c0,0-.519.137-.683-.225,0,0-.417.042-.655.053a1.769,1.769,0,0,1-1-.277A1.9,1.9,0,0,1,30.3,24.6a.76.76,0,0,1-.651-.046,10.157,10.157,0,0,1-1.71-1.749c-.2-.345-.682-.759-.6-1.329a1.528,1.528,0,0,1-.8-1.337c-.078-1.032.46-1.129.46-1.129l-.21-.681a1.253,1.253,0,0,1,.4-.716s-.333-.092.05-.749a1.868,1.868,0,0,1-.061-1.961,2.985,2.985,0,0,1,1.712-1.257.648.648,0,0,1,.45-.4c.319-.047.992-.06.992-.06a1.807,1.807,0,0,1,.942-.812,3.211,3.211,0,0,1,1.054-.136,2.381,2.381,0,0,1,1.683-.566c.8.17,1.353.311,1.353.311a3.4,3.4,0,0,1,.781-.741c.384-.222,1.648.323,1.673.7s.653.481.653.481l.431.1s.492-.415.681-.21,1.039,1.228,1.039,1.228Z"/><path class="cls-5" d="M39.048,19.058c-.012-.174.243-.332.569-.355h0c.327-.023.6.1.614.272l.065.94c.012.173-.243.332-.569.355h0c-.327.022-.6-.1-.614-.272Z"/><path class="cls-5" d="M34.638,14.832c-.174-.005-.308-.273-.3-.6h0c.009-.327.156-.589.329-.584l.942.023c.174,0,.308.273.3.6h0c-.008.328-.155.589-.328.585Z"/><path class="cls-5" d="M29.691,21.188c-.077-.156.1-.4.393-.544h0c.293-.145.594-.136.67.02l.417.845c.076.156-.1.4-.393.544h0c-.294.144-.594.135-.671-.02Z"/><path class="cls-5" d="M28.772,17.022c-.157-.075-.17-.375-.03-.671h0c.141-.295.382-.475.538-.4l.852.4c.156.075.169.375.029.67h0c-.141.3-.381.475-.538.4Z"/><path class="cls-5" d="M39.3,14.323c.152-.083.4.082.559.37h0c.157.288.16.588.008.671l-.828.45c-.152.083-.4-.083-.559-.37h0c-.157-.288-.16-.588-.008-.671Z"/><path class="cls-5" d="M35.305,22.717c-.167-.047-.23-.341-.142-.656h0c.088-.315.3-.533.462-.486l.907.254c.168.047.231.34.143.656h0c-.088.315-.295.533-.462.486Z"/><path class="cls-5" d="M34.1,17.857c-.012-.173.243-.332.57-.354h0c.326-.023.6.1.613.272l.065.94c.013.173-.242.332-.569.354h0c-.327.023-.6-.1-.613-.272Z"/><path class="cls-6" d="M28.525,19.749a11.428,11.428,0,0,1,1.4-.812c.6-.273-.261-.308-.939-.062S27.626,19.911,28.525,19.749Z"/><path class="cls-6" d="M41.483,17.242s-.069-1.366-.271-1.275-1.009.456-.822.736S41.216,17.727,41.483,17.242Z"/><path class="cls-6" d="M32.815,14.047s-.227.71-.721.69-.47-.638-.47-.638S32.711,13.548,32.815,14.047Z"/><path class="cls-6" d="M34.173,24.731s-.4-1.28-.826-1.024.345,1.3.345,1.3S34.305,25.157,34.173,24.731Z"/><path class="cls-6" d="M35.62,17.033s-.021-.719-.374-.56-.1.715-.1.715Z"/><path class="cls-8" d="M18.874,27.026s.986-1.036,2.306.433a.12.12,0,0,0,.175.023s.674-.046.65.485l.6.211a1.344,1.344,0,0,1,1.885.245l.276.615s.335-.179.5.244a1.267,1.267,0,0,1,.756,1.39l.265.7s.568.43.5.912l-.119.92s-.008.4-.047.707-.684.8-.684.8l.02.537s.572.743.317,1.333a11.483,11.483,0,0,1-.036,1.645c-.085.657.171,1.091.1,1.3s-.758.348-.758.348-.419.48-.55.463c0,0-.156.514-.55.463,0,0-.183.378-.3.585a1.769,1.769,0,0,1-.76.7,1.906,1.906,0,0,1-1.025,0,.757.757,0,0,1-.38.53,10.192,10.192,0,0,1-2.387.537c-.4-.007-1,.182-1.446-.188a1.53,1.53,0,0,1-1.557-.023c-.918-.476-.719-.985-.719-.985l-.689-.179a1.25,1.25,0,0,1-.4-.72s-.253.235-.612-.435a1.866,1.866,0,0,1-1.7-.979,2.983,2.983,0,0,1-.171-2.116.649.649,0,0,1-.1-.593c.127-.3.47-.874.47-.874a1.814,1.814,0,0,1-.2-1.229,3.2,3.2,0,0,1,.438-.968,2.386,2.386,0,0,1,.4-1.73c.568-.595.975-.988.975-.988a3.411,3.411,0,0,1-.22-1.053c.014-.444,1.141-1.233,1.474-1.056s.753-.3.753-.3l.308-.316s-.095-.637.179-.69,1.59-.239,1.59-.239Z"/><path class="cls-5" d="M22.277,31.741c-.153-.081-.154-.381,0-.671h0c.152-.29.4-.459.553-.379l.835.438c.153.081.154.381,0,.671h0c-.152.29-.4.46-.553.379Z"/><path class="cls-5" d="M16.365,33.275c-.095.145-.394.118-.668-.061h0c-.274-.179-.42-.441-.325-.587l.514-.789c.1-.145.394-.118.669.06h0c.274.179.419.442.325.587Z"/><path class="cls-5" d="M19.175,40.823c-.172-.017-.287-.294-.256-.62h0c.031-.326.2-.577.369-.561l.938.09c.173.017.288.294.256.62h0c-.031.326-.2.577-.369.56Z"/><path class="cls-5" d="M15.148,39.417c-.146.094-.408-.052-.586-.327h0c-.178-.275-.2-.574-.058-.669l.791-.512c.145-.094.408.053.586.327h0c.177.275.2.575.058.669Z"/><path class="cls-5" d="M18.379,29.042c.009-.173.282-.3.609-.281h0c.327.018.584.173.574.346l-.051.941c-.009.173-.282.3-.609.281h0c-.327-.018-.584-.173-.575-.346Z"/><path class="cls-5" d="M23.426,36.848c-.128.117-.411.017-.633-.223h0c-.222-.241-.3-.531-.171-.649l.693-.639c.127-.117.411-.017.632.223h0c.222.241.3.531.171.649Z"/><path class="cls-5" d="M18.659,35.318c-.154-.08-.155-.381,0-.67h0c.152-.29.4-.46.554-.379l.834.438c.154.08.155.381,0,.671h0c-.152.289-.4.459-.554.378Z"/><path class="cls-6" d="M17.339,41.059a11.534,11.534,0,0,1,.041-1.613c.086-.659-.4.06-.546.766S17.005,41.909,17.339,41.059Z"/><path class="cls-6" d="M22.011,28.715s-1.2-.658-1.227-.438-.142,1.1.194,1.085S22.284,29.2,22.011,28.715Z"/><path class="cls-6" d="M14.74,34.414s.485.565.208.976-.79.065-.79.065S14.26,34.24,14.74,34.414Z"/><path class="cls-6" d="M24.545,38.869s-1.3-.336-1.306.165,1.289.391,1.289.391S24.977,38.981,24.545,38.869Z"/><path class="cls-6" d="M18.754,33.6s-.623-.36-.673.025.554.462.554.462Z"/><path class="cls-9" d="M52.044,29.849s.3,1.4-1.661,1.656a.12.12,0,0,0-.118.131s-.344.583-.768.262l-.512.372a1.342,1.342,0,0,1-1.267,1.415l-.664-.12s-.042.378-.486.278A1.266,1.266,0,0,1,45,33.679l-.73-.179s-.676.225-1.038-.1l-.691-.62s-.326-.232-.556-.438-.276-1.018-.276-1.018l-.453-.288s-.936.052-1.279-.493a11.566,11.566,0,0,1-1.336-.959c-.494-.442-1-.477-1.132-.658s.143-.821.143-.821-.159-.617-.071-.716c0,0-.336-.42-.07-.716,0,0-.208-.364-.314-.577a1.776,1.776,0,0,1-.15-1.025,1.9,1.9,0,0,1,.579-.845.759.759,0,0,1-.221-.614,10.228,10.228,0,0,1,.907-2.272c.233-.325.419-.93.973-1.086a1.53,1.53,0,0,1,.9-1.27c.912-.488,1.218-.036,1.218-.036l.538-.467a1.249,1.249,0,0,1,.818.08s-.05-.342.7-.258a1.866,1.866,0,0,1,1.769-.848,2.986,2.986,0,0,1,1.842,1.056.649.649,0,0,1,.545.252c.172.272.456.882.456.882a1.809,1.809,0,0,1,1.124.533,3.221,3.221,0,0,1,.551.909s1.029.506,1.2,1.311.262,1.362.262,1.362a3.41,3.41,0,0,1,.993.415c.359.262.372,1.638.038,1.813s-.176.792-.176.792l.086.433s.579.281.468.538-.7,1.447-.7,1.447Z"/><path class="cls-5" d="M46.231,29.987c.153-.081.4.088.555.378h0c.153.289.152.59,0,.671l-.833.44c-.154.081-.4-.088-.555-.378h0c-.153-.289-.152-.589,0-.67Z"/><path class="cls-5" d="M48.311,24.245c-.066-.161.126-.392.428-.517h0c.3-.125.6-.1.668.064l.36.871c.066.16-.126.391-.428.516h0c-.3.125-.6.1-.668-.064Z"/><path class="cls-5" d="M40.5,22.292c.112-.133.405-.071.657.139h0c.251.21.364.488.253.621l-.6.723c-.111.133-.405.071-.656-.139h0c-.251-.21-.364-.488-.253-.621Z"/><path class="cls-5" d="M43.935,19.766c0-.173.274-.307.6-.3h0c.328.009.589.157.584.33l-.025.942c0,.173-.274.307-.6.3h0c-.327-.009-.589-.157-.584-.33Z"/><path class="cls-5" d="M50.662,28.3c.137.106.087.4-.113.662h0c-.2.259-.472.384-.61.278l-.747-.575c-.137-.105-.087-.4.113-.661h0c.2-.259.473-.384.61-.278Z"/><path class="cls-5" d="M41.371,28.045c-.025-.172.217-.349.541-.4h0c.324-.047.607.054.632.226l.135.932c.024.172-.218.349-.542.4h0c-.324.047-.607-.055-.632-.226Z"/><path class="cls-5" d="M45.328,24.98c.154-.081.4.088.555.377h0c.153.29.152.59,0,.671l-.833.44c-.153.081-.4-.088-.555-.377h0c-.153-.29-.152-.59,0-.671Z"/><path class="cls-6" d="M41.342,20.643a11.485,11.485,0,0,1,1.306.948c.495.443.176-.363-.323-.884S40.83,19.887,41.342,20.643Z"/><path class="cls-6" d="M48.877,31.48s1.22-.616,1.055-.764-.824-.738-1.005-.454S48.325,31.432,48.877,31.48Z"/><path class="cls-6" d="M48.291,22.26s-.74.08-.923-.38.394-.688.394-.688S48.706,21.963,48.291,22.26Z"/><path class="cls-6" d="M39.071,27.825s1.01-.879.6-1.17-1.051.842-1.051.842S38.734,28.118,39.071,27.825Z"/><path class="cls-6" d="M46.7,26.033s.65-.31.361-.569-.7.2-.7.2Z"/><path class="cls-10" d="M51.44,37.019s1.4.3.842,2.189a.12.12,0,0,0,.073.161s.393.55-.072.808l.134.619a1.343,1.343,0,0,1,.781,1.732l-.378.558a.351.351,0,0,1,.057.556,1.267,1.267,0,0,1-.787,1.373l-.459.595s-.067.709-.51.909l-.846.382s-.345.2-.627.331-1.041-.16-1.041-.16l-.447.3s-.332.877-.969.97a11.546,11.546,0,0,1-1.417.834c-.6.273-.84.718-1.059.769s-.694-.463-.694-.463-.629-.1-.683-.225c0,0-.52.137-.683-.225,0,0-.417.043-.655.053a1.774,1.774,0,0,1-1-.277,1.9,1.9,0,0,1-.539-.872.758.758,0,0,1-.65-.046A10.2,10.2,0,0,1,38.1,46.139c-.2-.344-.682-.759-.6-1.329a1.53,1.53,0,0,1-.8-1.337c-.077-1.032.461-1.129.461-1.129l-.211-.681a1.25,1.25,0,0,1,.405-.715s-.333-.093.049-.75a1.865,1.865,0,0,1-.06-1.96,2.981,2.981,0,0,1,1.711-1.257.651.651,0,0,1,.451-.4c.318-.046.991-.059.991-.059a1.811,1.811,0,0,1,.943-.813,3.206,3.206,0,0,1,1.053-.136,2.389,2.389,0,0,1,1.684-.566c.8.17,1.352.311,1.352.311a3.432,3.432,0,0,1,.781-.74c.385-.222,1.649.322,1.673.7s.654.481.654.481l.431.1s.491-.415.681-.21,1.039,1.228,1.039,1.228Z"/><path class="cls-5" d="M49.215,42.391c-.012-.173.243-.332.569-.355h0c.327-.022.6.1.613.272l.066.94c.012.174-.243.332-.57.355h0c-.326.023-.6-.1-.613-.272Z"/><path class="cls-5" d="M44.8,38.165c-.173,0-.307-.273-.3-.6h0c.008-.328.155-.589.329-.585l.942.023c.173.005.307.273.3.6h0c-.008.327-.155.589-.329.584Z"/><path class="cls-5" d="M39.857,44.521c-.076-.156.1-.4.393-.544h0c.294-.144.594-.136.671.02l.416.845c.077.156-.1.4-.393.544h0c-.293.145-.594.136-.67-.02Z"/><path class="cls-5" d="M38.938,40.355c-.156-.074-.169-.374-.029-.67h0c.141-.3.381-.475.538-.4l.851.405c.157.074.17.374.03.67h0c-.141.3-.382.475-.539.4Z"/><path class="cls-5" d="M49.464,37.656c.152-.083.4.083.559.37h0c.156.288.16.588.007.671l-.827.451c-.153.083-.4-.083-.559-.371h0c-.157-.287-.16-.588-.008-.671Z"/><path class="cls-5" d="M45.472,46.05c-.167-.047-.231-.34-.143-.656h0c.089-.315.3-.532.463-.486l.907.254c.167.047.231.341.143.656h0c-.089.315-.3.533-.463.486Z"/><path class="cls-5" d="M44.27,41.191c-.012-.174.243-.332.569-.355h0c.327-.023.6.1.614.272l.065.94c.012.173-.243.332-.569.355h0c-.327.022-.6-.1-.614-.272Z"/><path class="cls-6" d="M38.691,43.082a11.66,11.66,0,0,1,1.395-.812c.606-.273-.26-.307-.939-.062S37.793,43.244,38.691,43.082Z"/><path class="cls-6" d="M51.65,40.575s-.069-1.365-.271-1.274-1.01.455-.822.735S51.383,41.06,51.65,40.575Z"/><path class="cls-6" d="M42.982,37.381s-.227.709-.722.69-.47-.639-.47-.639S42.878,36.881,42.982,37.381Z"/><path class="cls-6" d="M44.34,48.064s-.4-1.279-.826-1.024.344,1.3.344,1.3S44.472,48.49,44.34,48.064Z"/><path class="cls-6" d="M45.786,40.366s-.021-.719-.374-.559-.1.714-.1.714Z"/><path class="cls-11" d="M29.94,18.519s1.4.3.842,2.189a.12.12,0,0,0,.073.161s.393.55-.072.808l.134.619a1.343,1.343,0,0,1,.781,1.732l-.378.558a.351.351,0,0,1,.057.556,1.267,1.267,0,0,1-.787,1.373l-.459.595s-.067.709-.51.909l-.846.382s-.345.2-.627.331-1.041-.16-1.041-.16l-.447.3s-.332.877-.969.97a11.546,11.546,0,0,1-1.417.834c-.6.273-.84.718-1.059.769s-.694-.463-.694-.463-.629-.1-.683-.225c0,0-.52.137-.683-.225,0,0-.417.043-.655.053a1.774,1.774,0,0,1-1-.277,1.9,1.9,0,0,1-.539-.872.758.758,0,0,1-.65-.046A10.2,10.2,0,0,1,16.6,27.639c-.2-.344-.682-.759-.6-1.329a1.53,1.53,0,0,1-.8-1.337c-.077-1.032.461-1.129.461-1.129l-.211-.681a1.25,1.25,0,0,1,.4-.715s-.333-.093.049-.75a1.865,1.865,0,0,1-.06-1.96,2.981,2.981,0,0,1,1.711-1.257.651.651,0,0,1,.451-.4c.318-.046.991-.059.991-.059a1.811,1.811,0,0,1,.943-.813A3.206,3.206,0,0,1,21,17.075a2.389,2.389,0,0,1,1.684-.566c.8.17,1.352.311,1.352.311a3.432,3.432,0,0,1,.781-.74c.385-.222,1.649.322,1.673.7s.654.481.654.481l.431.1s.491-.415.681-.21,1.039,1.228,1.039,1.228Z"/><path class="cls-5" d="M27.715,23.891c-.012-.173.243-.332.569-.355h0c.327-.022.6.1.613.272l.066.94c.012.174-.243.332-.57.355h0c-.326.023-.6-.1-.613-.272Z"/><path class="cls-5" d="M23.3,19.665c-.173,0-.307-.273-.3-.6h0c.008-.328.155-.589.329-.585l.942.023c.173,0,.307.273.3.6h0c-.008.327-.155.589-.329.584Z"/><path class="cls-5" d="M18.357,26.021c-.076-.156.1-.4.393-.544h0c.294-.144.594-.136.671.02l.416.845c.077.156-.1.4-.393.544h0c-.293.145-.594.136-.67-.02Z"/><path class="cls-5" d="M17.438,21.855c-.156-.074-.169-.374-.029-.67h0c.141-.3.381-.475.538-.4l.851.405c.157.074.17.374.03.67h0c-.141.295-.382.475-.539.4Z"/><path class="cls-5" d="M27.964,19.156c.152-.083.4.083.559.37h0c.156.288.16.588.007.671l-.827.451c-.153.083-.4-.083-.559-.371h0c-.157-.287-.16-.588-.008-.671Z"/><path class="cls-5" d="M23.972,27.55c-.167-.047-.231-.34-.143-.656h0c.089-.315.3-.532.463-.486l.907.254c.167.047.231.341.143.656h0c-.089.315-.3.533-.463.486Z"/><path class="cls-5" d="M22.77,22.691c-.012-.174.243-.332.569-.355h0c.327-.023.6.1.614.272l.065.94c.012.173-.243.332-.569.355h0c-.327.022-.6-.1-.614-.272Z"/><path class="cls-6" d="M17.191,24.582a11.66,11.66,0,0,1,1.395-.812c.606-.273-.26-.307-.939-.062S16.293,24.744,17.191,24.582Z"/><path class="cls-6" d="M30.15,22.075s-.069-1.365-.271-1.274-1.009.455-.822.735S29.883,22.56,30.15,22.075Z"/><path class="cls-6" d="M21.482,18.881s-.227.709-.722.69-.47-.639-.47-.639S21.378,18.381,21.482,18.881Z"/><path class="cls-6" d="M22.84,29.564s-.395-1.279-.826-1.024.344,1.3.344,1.3S22.972,29.99,22.84,29.564Z"/><path class="cls-6" d="M24.286,21.866s-.021-.719-.374-.559-.1.714-.1.714Z"/><circle class="cls-1" cx="33.514" cy="33.417" r="6.084"/><path class="cls-12" d="M33.513,27.583a5.834,5.834,0,1,1-5.834,5.834,5.834,5.834,0,0,1,5.834-5.834m0-.5a6.334,6.334,0,1,0,6.335,6.334,6.342,6.342,0,0,0-6.335-6.334Z"/><circle class="cls-2" cx="33.524" cy="33.428" r="4.984"/><circle class="cls-13" cx="33.524" cy="33.438" r="4.354"/><path class="cls-14" d="M33.458,34.042s-1,.25-.875.708a.732.732,0,0,0,.625.5l.625-.042S34.083,34.333,33.458,34.042Z"/><path class="cls-14" d="M33.917,31.167s-1,1.208-.584,1.541a1.426,1.426,0,0,0,1.459-.083A1.706,1.706,0,0,0,33.917,31.167Z"/><path class="cls-14" d="M31.542,32.167s-1,.25-.875.708a.732.732,0,0,0,.625.5l.625-.042S32.167,32.458,31.542,32.167Z"/><path class="cls-15" d="M34.463,35.862c-.127.066-.33-.075-.454-.315h0c-.124-.239-.122-.487.005-.552l.69-.357c.127-.066.33.075.454.315h0c.124.239.122.487-.005.552Z"/><path class="cls-16" d="M32.972,32.176c-.05.134-.3.167-.548.073h0c-.253-.093-.418-.278-.369-.412l.27-.728c.049-.134.295-.167.548-.074h0c.253.094.418.279.368.413Z"/><path class="cls-15" d="M30.755,35.571c-.127.065-.331-.076-.455-.315h0c-.124-.24-.121-.487.006-.553L31,34.346c.127-.066.331.075.455.315h0c.124.24.121.487-.006.553Z"/><path class="cls-16" d="M37.227,35.282c.1.1.027.338-.165.528h0c-.191.19-.428.262-.529.16l-.547-.551c-.1-.1-.027-.338.165-.528h0c.191-.19.428-.262.529-.16Z"/><path class="cls-14" d="M32.792,36.292s-1,.25-.875.708a.732.732,0,0,0,.625.5l.625-.042S33.417,36.583,32.792,36.292Z"/><path class="cls-14" d="M36.5,31.083s-1,.25-.875.709a.732.732,0,0,0,.625.5l.625-.042S37.125,31.375,36.5,31.083Z"/><path class="cls-17" d="M31.542,29.563s-1.334,1.333-.25,2.333,1.6.458,2.166.708.667.792.979,1.209,2.917.687,2.875,1.77a4.351,4.351,0,0,0-5.77-6.02Z"/></svg>