<?xml version="1.0" ?><svg height="64" viewBox="0 0 64 64" width="64" xmlns="http://www.w3.org/2000/svg" xmlns:xlink="http://www.w3.org/1999/xlink"><defs><style>.cls-1{fill:#008c07;}.cls-2{fill:#006605;}.cls-3{fill:url(#linear-gradient);}.cls-4{fill:#cf551b;}.cls-5{fill:#f4ffb3;}.cls-6{fill:#fff;}.cls-7{fill:red;}.cls-8{fill:#21cf1b;}</style><linearGradient gradientUnits="userSpaceOnUse" id="linear-gradient" x1="30.738" x2="32.923" y1="17.545" y2="49.959"><stop offset="0" stop-color="#ff8521"/><stop offset="1" stop-color="#e85f1e"/></linearGradient></defs><title/><g data-name="hor mok" id="hor_mok"><rect class="cls-1" height="45" rx="22.275" ry="22.275" width="45" x="9.205" y="9.393"/><rect class="cls-2" height="41" rx="20.295" ry="20.295" width="41" x="11.205" y="11.393"/><rect class="cls-3" height="37.25" rx="18.439" ry="18.439" width="37.25" x="13.08" y="13.268"/><ellipse class="cls-4" cx="17.833" cy="23.5" rx="1.5" ry="1.156"/><ellipse class="cls-4" cx="24.167" cy="18" rx="1" ry="0.771"/><ellipse class="cls-4" cx="22.375" cy="36.969" rx="1.5" ry="1.156"/><ellipse class="cls-4" cx="35.437" cy="30.594" rx="1.5" ry="1.156"/><ellipse class="cls-4" cx="40.917" cy="46.917" rx="0.875" ry="0.674"/><ellipse class="cls-4" cx="44.562" cy="20.781" rx="1.5" ry="1.156"/><ellipse class="cls-4" cx="33.583" cy="46.833" rx="1.5" ry="1.156"/><ellipse class="cls-4" cx="27.917" cy="48.201" rx="0.875" ry="0.674"/><path class="cls-5" d="M21.613,26.633a9.034,9.034,0,0,0-1.251-4.163c-1.25-2.115.188-3.479,1.626-3.616s1.625,1.365,2.938,1.979,3.875-1.3,5.563-1.365,1,.41,3.438,1.433,3.751.205,6.439.819,3.063,1.228,2.376,2.456a2.9,2.9,0,0,0,.625,3.412c.813.887,2.813,2.32,2.125,4.571S44.242,34,44.18,35.23s1.5,5.8.5,7.369-3.376,3.07-5.314,1.842-3.5-2.524-5.5-2.183-6.439,2.115-7.939.409-.5-1.842-1.563-3.07-5.251,1.228-6.126-3,1.438-3.276,2.688-4.163S17.487,29.771,21.613,26.633Z"/><path class="cls-6" d="M38.583,43.667s1.5,1.625,3.125.812,3.563-1.437,2.938-5.062-1.063-4.063-.375-5.25,1.812-2,.687-4.313-1.187-.25-.5,1-.062,1.688-.937,2.375-.688,2.563-.375,3.875,2.125,5.125-1.688,6.25c0,0-1.437,1.063-2.25-1.812S35.521,41.1,38.583,43.667Z"/><path class="cls-6" d="M20.333,20.792s.875-1.688,1.75-1.625,1.938,2.25,3.625,2.25,3.25-1.375,4.125-1.375a7.906,7.906,0,0,1,3,1.187c.938.5.313,1.125-.562.688a4.44,4.44,0,0,0-3.563-.688c-1.437.5-3.062,1.875-4.812.625s-1.938-.687-2.625-.25S20.4,21.292,20.333,20.792Z"/><path class="cls-7" d="M19.917,40.333S38,33.917,42.5,18.667l-.583-.084s-1.334,3.334-2.917,4.5A209.186,209.186,0,0,0,18.917,40.25S18,41.333,19.917,40.333Z"/><rect class="cls-8" height="0.833" transform="translate(-9.747 44.484) rotate(-67.761)" width="7.667" x="24.417" y="29.083"/><rect class="cls-8" height="0.833" transform="translate(-8.747 50.733) rotate(-73.252)" width="7.667" x="25.917" y="30.833"/><rect class="cls-8" height="0.833" transform="translate(-11.995 34.49) rotate(-47.892)" width="7.667" x="29" y="30.333"/><rect class="cls-8" height="0.833" transform="translate(-13.438 24.087) rotate(-33.669)" width="7.667" x="29.25" y="33.833"/></g></svg>