<?xml version="1.0" ?><svg height="64" viewBox="0 0 64 64" width="64" xmlns="http://www.w3.org/2000/svg"><defs><style>.cls-1{fill:#ffe9cc;}.cls-2{fill:#ffd59e;}.cls-3{fill:#c45c00;}.cls-4{fill:#c98019;}.cls-5{fill:#eb9800;}.cls-6{fill:#d68b00;}.cls-7{fill:#ebba1d;}.cls-8{fill:#ffca1f;}.cls-9{fill:#ffd85e;}.cls-10{fill:#ffe38a;}.cls-11{fill:#d96600;}.cls-12{fill:#ffd03b;}.cls-13{fill:#ffe38c;}.cls-14{fill:#fff4d1;}.cls-15{fill:#fff0c2;}.cls-16{fill:#fff;}.cls-17{fill:#f80;}.cls-18{fill:#fa0;}.cls-19{fill:#ff5900;}.cls-20{fill:#42ff4c;}.cls-21{fill:#21ff2d;}</style></defs><title/><g data-name="chow mein" id="chow_mein"><circle class="cls-1" cx="32.513" cy="32.048" r="27.37"/><circle class="cls-2" cx="32.564" cy="32.099" r="23.384"/><circle class="cls-3" cx="29.867" cy="30.521" r="18.486"/><path class="cls-4" d="M10.048,25.982s5.092-4.6,10.606-3.632,6.336,6.4,4.1,8.469c0,0-.73-.088-1.117-1.291s-1.583-3.808-3.955-3.8-4.907.382-10.092,4.524A10.781,10.781,0,0,1,10.048,25.982Z"/><path class="cls-5" d="M29.327,20.646s7.257-4.77,11.971.346a25.613,25.613,0,0,0,3.374,4.756c1.391,1.236,4.9,2.294,4.7,6.576s-2.194,5.7-3.312,5.8S38.607,37.3,37.179,39.3s-.754,6.863-2.57,9.132-10.319-.936-7.86-7.2-1.738-9.774-2.522-11.45S21.383,23.91,27,21.944s4.363,2.149,2.88,2.641-4.327.819-3.781,3.809,4.176,4.34,3.924,8.7S27.97,42.57,28.828,44.3s3.783,3.343,4.409,1.444S33.113,38.3,36.9,36.067s7.908.288,9.12-.908,1.03-4.262-1.409-5.98a18.5,18.5,0,0,1-5.326-6.258c-1.2-2.161-5.432-2.121-9.1.082S26,22.653,29.327,20.646Z"/><path class="cls-6" d="M26.691,18.271s-2.884-3.59.218-7.007,12.915-.922,11.986,4.458.237,5.205,1.7,6.173,4.016.764,5.967,1.949,3.589,3.636.925,7.028A8.658,8.658,0,0,1,36.4,33.32c-4.216-2.053-7.262-3.648-9.359,1.907s-3.152,9.694-6.265,9.948-3.847-.862-2.612-2.253,2.6.039,3.814-1.79,1.176-4.48,3.91-8.456,6.556-3.551,10.335-1.472a6.015,6.015,0,0,0,8.385-2.025c1.549-2.341,1.008-4.067-5.393-4.725,0,0-4.505-1.3-3.791-5.557s-.51-6.543-3.186-6.63-4.858,2.1-3.628,6.04S26.691,18.271,26.691,18.271Z"/><path class="cls-7" d="M47.593,26.1s1.149-5.235-3.289-8.065-8.436,1.782-10.488,6S33.553,32.065,31,33.85s-7.032-.34-9.8.035-9.665,4.755-.9,12.338,19.119-.92,20.474-2.969,1.784-4.288,3.555-5.851-1.613-2.014-2.485-1.013a22.877,22.877,0,0,0-3.1,5c-.966,2.1-6.139,4.669-9.861,4.731s-8.862-1.866-9.559-6.218,5.61-2.915,7-2.312S36,36.946,36,29.794s4.393-9.5,7.339-9.028,1.87,6.075,1.022,6.881-4.511,3.957-9.2.228l-.891,2.46s3.932,4.073,8.159,2.452S47.593,26.1,47.593,26.1Z"/><path class="cls-8" d="M22.531,31.794s-6.129-4.448-1.19-11.2S35.425,14.925,36,17.988s-1.585,5.973,1,9.813,7.858,3.384,10.1,9.051-7.2,12.67-13.092,7.272-.982-9.01.6-9.855,2.228.685,1.357,2-4.62,4.122.682,7.077,10.607-3.395,7.421-6.686-3.967-1.993-7.96-6.212-2.437-8-2.424-9.57-1.857-3.99-5.082-2.573-10.575,7.282-3.675,13.187C24.938,31.494,25.143,32.734,22.531,31.794Z"/><path class="cls-9" d="M48.728,25.633S42.414,21.982,38.3,29.149s8.41,11.453,9.274,8.238-.275-1.969-1.806-1.721-7,.415-6.053-5.476c.825-5.107,7.121-4.145,8.516-2.878a.835.835,0,0,0,1.317-.179C49.731,26.767,49.622,26.268,48.728,25.633Z"/><path class="cls-10" d="M32.9,39.745s4.134-2.314,3.537-5.943-1.2-2.842-1.1-2.149,1.014,3.117-.366,4.965a8.331,8.331,0,0,1-2.636,2.673C30.894,40.391,32.607,39.947,32.9,39.745Z"/><path class="cls-9" d="M31.555,16.139s3.228-.467,3.947,1.665.277.893-.711.24S29.477,16.9,31.555,16.139Z"/><circle class="cls-11" cx="36.713" cy="36.119" r="16.327"/><path class="cls-4" d="M44.722,52.191s2.891-5.326.918-9.859-6.809-4.111-8.122-1.762c0,0,.228.609,1.341.692s3.6.569,4.082,2.607.69,4.291-1.79,9.6A9.521,9.521,0,0,0,44.722,52.191Z"/><path class="cls-5" d="M45.3,34.533s2.589-7.219-2.782-10.2a22.646,22.646,0,0,1-4.783-1.91c-1.349-.938-2.985-3.729-6.619-2.666S26.68,22.819,26.825,23.8s2.254,6.223.833,7.864-5.735,2.071-7.306,4.1,2.944,8.664,7.809,5.254,8.751-.536,10.352-.21,5.636,1.221,6.159-4.006-2.75-3.3-2.865-1.924.2,3.885-2.485,4.037-4.592-2.685-8.279-1.565-4.28,2.9-5.938,2.518-3.656-2.554-2.155-3.485,6.416-1.438,7.543-5.152S28.605,24.5,29.38,23.215s3.445-1.769,5.426-.032a16.322,16.322,0,0,0,6.477,3.273c2.1.582,2.948,4.224,1.818,7.828S44.27,37.805,45.3,34.533Z"/><path class="cls-6" d="M47.888,36.3a4.789,4.789,0,0,0,5.97-1.641c2.29-3.372-1.888-11.278-6.313-9.364s-4.518.876-5.653-.179S40.4,21.829,38.981,20.4s-3.867-2.327-6.225.663a7.648,7.648,0,0,0,.2,10.024c2.637,3.194,4.639,5.478.3,8.431s-7.667,4.717-7.24,7.442,1.538,3.124,2.476,1.775-.574-2.227.745-3.645,3.6-1.939,6.448-5.112,1.688-6.365-.88-9.177a5.313,5.313,0,0,1,0-7.619c1.688-1.815,3.282-1.709,5.175,3.649,0,0,2.049,3.6,5.557,2.1s5.723-.92,6.353,1.359S51.1,34.9,47.459,34.661,47.888,36.3,47.888,36.3Z"/><path class="cls-7" d="M36.828,19.985s4.255-2.072,7.606,1.15.221,7.611-2.973,10.248-6.838,1.892-7.842,4.45,1.751,5.966,2,8.424-2.075,9.284-10.4,3.336-3.177-16.6-1.7-18.191,3.311-2.422,4.286-4.267,2.063.967,1.385,1.924a20.246,20.246,0,0,1-3.649,3.7c-1.6,1.263-2.734,6.238-2.015,9.446s3.441,7.22,7.321,6.916,1.339-5.421.533-6.488-1.457-8.443,4.684-9.926,7.247-5.744,6.227-8.174-5.6-.345-6.119.55-2.462,4.694,1.712,7.941L35.958,32.3s-4.312-2.53-3.8-6.5S36.828,19.985,36.828,19.985Z"/><path class="cls-8" d="M37.142,42.681s5.091,4.338,9.861-1.3,1.945-13.267-.8-13.126-4.8,2.6-8.632,1.176-4.535-6.044-9.866-6.8S18.318,31.44,24.175,35.38s7.938-1.027,8.335-2.563-1.051-1.771-2-.75-2.58,4.822-6.217.883.714-9.81,4.2-7.757,2.534,2.991,6.984,5.544,7.374.432,8.719.1,3.81.767,3.263,3.829S43.4,45.25,36.9,40.552C36.9,40.552,35.794,40.633,37.142,42.681Z"/><path class="cls-12" d="M54.337,39.551a8.635,8.635,0,0,1-3.97-2.9c-2.145-2.471-4.952-5.083-10.617-2.576s-4.855,8.974-.564,11.7c0,0,1.411.36-.132-1.393s-3.055-4.905-.1-7.232,5.749-2.428,8.211-.3,3.621,4.638,6.522,5.273A8.927,8.927,0,0,0,54.337,39.551Z"/><path class="cls-9" d="M45.447,50.643s7.495-1.915,7.2-11.319c0,0-.549-4.954-6.033-4.263s-7.514-.879-9.267-2.747-5.256-3.222-8.607.722.053,16.237,8.652,14.158.394,5.207-.968,5.051-1.949-.464-3.943-2.16-6.295-6.966-11.253-6.5c0,0-.438.386.887,1.777s2.856-.6,7.672,4.121,6.481,6.425,11.918,1.007.2-5.845-1.027-5.636-5.822,1.567-8.435-1.339-2.952-7.745-.758-9.593,3.574-1.2,5.336.917,6.655,3.254,9.825,2.235,5.59,3.374,2.538,8.788S38.468,49.786,36.9,49.6c-1.307-.158-5.943-.767-8.013.625a1.161,1.161,0,0,0-.006,1.886,1.873,1.873,0,0,0,1.344.485c.858-.188.169-1.6,10.295-1.192a12.683,12.683,0,0,0,3.541-.361C44.521,50.926,45,50.793,45.447,50.643Z"/><path class="cls-9" d="M37,18.913s4.444,4.663-.856,9.678-11.576-4.843-9-6.252,1.748-.173,1.852,1.194,1.1,6.1,5.957,4.06c4.213-1.768,2.081-6.974.7-7.908a.738.738,0,0,1-.12-1.168C35.814,18.288,36.265,18.277,37,18.913Z"/><path class="cls-10" d="M28.166,35.43s1.128-4.028,4.367-4.269,2.689.437,2.074.5-2.886-.225-4.186,1.343a7.365,7.365,0,0,0-1.748,2.818C28.027,37.285,28.053,35.722,28.166,35.43Z"/><path class="cls-9" d="M48.709,31.686s-.268-2.868-2.248-3.043-.824-.053-.058.66S48.492,33.626,48.709,31.686Z"/><path class="cls-12" d="M21.4,12.038s.955,1.894,4.246,3.6,6.911,4.1,5.659,11-8.584,7.73-12.722,3.731c0,0-.772-1.457,1.568-.224s6.211,2.057,7.985-1.817,1.143-6.974-1.857-9.117-6.068-2.751-7.538-5.775C18.743,13.434,20.854,11.991,21.4,12.038Z"/><path class="cls-13" d="M11.558,24.773s.115-8.759,10.543-10.931c0,0,5.6-.714,6.3,5.506s2.966,8.036,5.49,9.468,4.944,4.927,1.494,9.665S17.5,42.742,17.5,32.725s-5.835.951-5.3,2.409,1.029,2.022,3.426,3.765,9.342,5.075,10.147,10.656c0,0-.309.584-2.192-.5s-.1-3.3-6.577-7.347-8.8-5.424-4.279-12.848,6.38-1.775,6.476-.37-.176,6.824,3.718,8.927S32.226,38.6,33.675,35.7s.368-4.253-2.429-5.63S25.9,23.608,26.174,19.848s-5.2-5.254-10.347-.455S14.358,32.225,14.985,33.9c.522,1.4,2.425,6.336,1.443,8.985a1.315,1.315,0,0,1-2.074.508,2.124,2.124,0,0,1-.891-1.35c-.021-.994,1.714-.611-1.427-11.647a14.412,14.412,0,0,1-.544-3.993C11.494,25.867,11.511,25.3,11.558,24.773Z"/><path class="cls-14" d="M26.556,15.254s1.675.914,2.018,5.408a10.07,10.07,0,0,0,5.446,8.189,5.836,5.836,0,0,1,2.171,8.378s2.552-5.408-2.476-8.112-5.407-6.4-5.636-8.531S27.812,16.968,26.556,15.254Z"/><path class="cls-12" d="M45.471,19.494a4.572,4.572,0,0,0-5.484-1.726s-1.117.66.355.559A5.571,5.571,0,0,1,45.115,19.7C46.639,21.221,45.674,19.748,45.471,19.494Z"/><path class="cls-15" d="M35.163,35.541s1.218-1.828.3-3.352-.489-1.788.01-1.452a4.207,4.207,0,0,1,1.311,3.483c-.075,1.9-1.27,4.571-3.3,5.231S32.725,38.232,35.163,35.541Z"/><path class="cls-15" d="M14.191,26.908s1.828-2.082,3.047-1.523a3.574,3.574,0,0,1,1.625,2.742c.05.508.2,2.793.3,3.351s-.609.407-.66-.609,0-4.57-1.422-4.824a2.7,2.7,0,0,0-2.691,1.168C14.039,27.721,13.988,27.213,14.191,26.908Z"/><path class="cls-16" d="M25.4,15.188l-.123,1.075A.812.812,0,0,0,26.4,17.1l.026-.011a.812.812,0,0,0,.169-1.4l-.864-.652A.21.21,0,0,0,25.4,15.188Z"/><path class="cls-16" d="M22.715,25.978l-.9.6a.812.812,0,0,0,.09,1.4l.025.012a.813.813,0,0,0,1.174-.774l-.062-1.081A.211.211,0,0,0,22.715,25.978Z"/><path class="cls-16" d="M17.764,39.079l-.9.6a.812.812,0,0,0,.09,1.4l.025.012a.813.813,0,0,0,1.174-.774l-.062-1.081A.211.211,0,0,0,17.764,39.079Z"/><path class="cls-16" d="M44.042,39.383l-.9.6a.813.813,0,0,0,.09,1.4l.026.013a.812.812,0,0,0,1.173-.774l-.062-1.081A.211.211,0,0,0,44.042,39.383Z"/><path class="cls-16" d="M41.719,19.4l-.287,1.043a.813.813,0,0,0,.985,1l.028-.007a.812.812,0,0,0,.381-1.353l-.753-.777A.21.21,0,0,0,41.719,19.4Z"/><path class="cls-16" d="M33,47.368l-.481.969a.813.813,0,0,0,.776,1.173l.028,0a.813.813,0,0,0,.633-1.255l-.591-.907A.211.211,0,0,0,33,47.368Z"/><path class="cls-16" d="M30.16,35.623l-.749-.782a.813.813,0,0,0-1.366.332l-.008.027A.813.813,0,0,0,29,36.222l1.053-.248A.211.211,0,0,0,30.16,35.623Z"/><path class="cls-16" d="M45.584,31.346l1.068-.178a.813.813,0,0,0,.5-1.315l-.018-.022a.812.812,0,0,0-1.388.221l-.39,1.01A.211.211,0,0,0,45.584,31.346Z"/><path class="cls-16" d="M47.672,44.379l.48.97a.812.812,0,0,0,1.4.1l.016-.024a.812.812,0,0,0-.614-1.264l-1.079-.08A.211.211,0,0,0,47.672,44.379Z"/><path class="cls-16" d="M25.686,48.447l-.9.6a.813.813,0,0,0,.091,1.4l.025.012a.812.812,0,0,0,1.173-.774l-.062-1.081A.211.211,0,0,0,25.686,48.447Z"/><path class="cls-16" d="M16.832,21.664l-.763-.767a.813.813,0,0,0-1.36.358l-.007.027a.812.812,0,0,0,.985,1l1.048-.268A.211.211,0,0,0,16.832,21.664Z"/><path class="cls-16" d="M40.38,14.565l1.082-.031a.813.813,0,0,0,.671-1.236l-.015-.024a.814.814,0,0,0-1.406.031l-.522.948A.21.21,0,0,0,40.38,14.565Z"/><path class="cls-16" d="M51.94,25.083l.076,1.08a.812.812,0,0,0,1.262.619l.023-.015a.814.814,0,0,0-.088-1.4l-.969-.483A.211.211,0,0,0,51.94,25.083Z"/><path class="cls-16" d="M32.728,13.616l.317-1.034a.813.813,0,0,0-.955-1.032l-.028.007a.812.812,0,0,0-.421,1.341l.73.8A.211.211,0,0,0,32.728,13.616Z"/><path class="cls-16" d="M11.671,34.965l-.9.6a.813.813,0,0,0,.091,1.4l.025.012a.812.812,0,0,0,1.173-.774L12,35.128A.211.211,0,0,0,11.671,34.965Z"/><path class="cls-16" d="M34.521,26.739l-.9.6a.812.812,0,0,0,.09,1.4l.025.013a.813.813,0,0,0,1.174-.774L34.849,26.9A.211.211,0,0,0,34.521,26.739Z"/><path class="cls-17" d="M14.625,27.248l-.014.014a1.016,1.016,0,0,0,0,1.437l3.228,3.229a1.016,1.016,0,0,0,1.437,0l.062-.062a1.017,1.017,0,0,0-.01-1.448l-3.277-3.181A1.015,1.015,0,0,0,14.625,27.248Z"/><path class="cls-18" d="M15.213,27.583l-.009.009a.62.62,0,0,0,0,.877l1.973,1.973a.622.622,0,0,0,.878,0l.038-.038a.62.62,0,0,0-.007-.884l-2-1.944A.622.622,0,0,0,15.213,27.583Z"/><path class="cls-19" d="M19.3,41.263l-.015.014a1.016,1.016,0,0,0,0,1.437l3.229,3.229a1.016,1.016,0,0,0,1.437,0l.062-.062A1.017,1.017,0,0,0,24,44.433l-3.276-3.181A1.015,1.015,0,0,0,19.3,41.263Z"/><path class="cls-17" d="M19.885,41.6l-.009.009a.622.622,0,0,0,0,.878l1.973,1.972a.62.62,0,0,0,.877,0l.038-.038a.621.621,0,0,0-.006-.884l-2-1.944A.621.621,0,0,0,19.885,41.6Z"/><path class="cls-17" d="M33.16,40.919l-.019,0a1.016,1.016,0,0,0-.778,1.209l.97,4.462a1.016,1.016,0,0,0,1.209.777l.085-.019a1.016,1.016,0,0,0,.774-1.223l-1.035-4.448A1.016,1.016,0,0,0,33.16,40.919Z"/><path class="cls-18" d="M33.474,41.519l-.012,0a.621.621,0,0,0-.475.739l.592,2.726a.621.621,0,0,0,.739.474l.052-.011a.621.621,0,0,0,.473-.747l-.633-2.717A.62.62,0,0,0,33.474,41.519Z"/><path class="cls-19" d="M41.8,31.54l-.02.006a1.015,1.015,0,0,0-.618,1.3l1.523,4.305a1.017,1.017,0,0,0,1.3.619l.083-.03a1.017,1.017,0,0,0,.614-1.311l-1.588-4.282A1.015,1.015,0,0,0,41.8,31.54Z"/><path class="cls-17" d="M42.186,32.1l-.012.005a.621.621,0,0,0-.378.792l.931,2.629a.62.62,0,0,0,.793.378l.05-.017a.621.621,0,0,0,.375-.8l-.97-2.616A.621.621,0,0,0,42.186,32.1Z"/><path class="cls-17" d="M29.821,14.966l-.019.006a1.016,1.016,0,0,0-.642,1.286l1.446,4.331a1.015,1.015,0,0,0,1.285.642l.083-.028a1.015,1.015,0,0,0,.637-1.3L31.1,15.594A1.017,1.017,0,0,0,29.821,14.966Z"/><path class="cls-18" d="M30.2,15.529l-.011,0a.62.62,0,0,0-.393.785l.884,2.646a.62.62,0,0,0,.785.392l.051-.017a.621.621,0,0,0,.389-.794l-.922-2.633A.621.621,0,0,0,30.2,15.529Z"/><path class="cls-20" d="M22.9,28.889a3.812,3.812,0,0,0-2.057,1.6c-.457,1.066,1.066,2.438,2.285,2.361,0,0-.381.305.533.61s1.371-1.067,1.371-1.067a1.483,1.483,0,0,0,.914-.228C26.556,31.859,27.013,27.9,22.9,28.889Z"/><path class="cls-21" d="M23.239,29.224a2.718,2.718,0,0,0-1.466,1.14c-.326.76.76,1.737,1.629,1.683,0,0-.272.217.38.434s.977-.76.977-.76a1.063,1.063,0,0,0,.651-.163C25.845,31.341,26.17,28.518,23.239,29.224Z"/><path class="cls-20" d="M41.617,46.413a3.809,3.809,0,0,0,2.594.244c1.063-.463.893-2.506-.047-3.285,0,0,.486.039.029-.809s-1.729-.163-1.729-.163a1.493,1.493,0,0,0-.822-.46C40.989,41.744,37.942,44.316,41.617,46.413Z"/><path class="cls-21" d="M41.6,45.937a2.72,2.72,0,0,0,1.849.174c.758-.331.637-1.787-.033-2.342,0,0,.346.028.021-.577s-1.233-.116-1.233-.116a1.065,1.065,0,0,0-.586-.328C41.152,42.609,38.98,44.442,41.6,45.937Z"/><path class="cls-20" d="M36.686,15.864a3.811,3.811,0,0,0-2.056,1.6c-.457,1.067,1.066,2.438,2.285,2.362,0,0-.381.3.533.609s1.371-1.066,1.371-1.066a1.491,1.491,0,0,0,.914-.229C40.342,18.834,40.8,14.874,36.686,15.864Z"/><path class="cls-21" d="M37.025,16.2a2.714,2.714,0,0,0-1.465,1.14c-.326.76.76,1.737,1.628,1.683,0,0-.271.217.38.434s.978-.76.978-.76a1.053,1.053,0,0,0,.651-.163C39.631,18.316,39.957,15.493,37.025,16.2Z"/></g></svg>