<?xml version="1.0" encoding="utf-8"?>
<!-- Generator: Adobe Illustrator 21.1.0, SVG Export Plug-In . SVG Version: 6.00 Build 0)  -->
<svg version="1.1" id="Layer_1" xmlns="http://www.w3.org/2000/svg" xmlns:xlink="http://www.w3.org/1999/xlink" x="0px" y="0px"
	 viewBox="0 0 426 426" style="enable-background:new 0 0 426 426;" xml:space="preserve">
<style type="text/css">
	.st0{fill:#F6DCAA;}
	.st1{clip-path:url(#SVGID_2_);fill-opacity:0;stroke:#D8AE5E;stroke-width:16;}
	.st2{fill:#ECCA89;}
	.st3{fill:#C49D57;fill-opacity:0.5;}
	.st4{fill:#93BA5A;}
	.st5{fill-opacity:0;stroke:#A2CD69;stroke-width:2;}
	.st6{fill:#89933E;}
	.st7{fill:#A25D2C;}
	.st8{fill:#FEAF92;}
	.st9{fill-opacity:0.18;}
	.st10{fill:#CE4141;}
	.st11{fill-opacity:0;stroke:#AA1B1B;stroke-width:12;}
	.st12{fill:#BC1919;}
	.st13{fill-opacity:0;}
	.st14{fill-opacity:0.13;}
	.st15{fill-opacity:0;stroke:#FFFFFF;stroke-width:8;stroke-opacity:0.14;}
	.st16{fill-opacity:0;stroke:#FFFFFF;stroke-width:2;stroke-opacity:0.27;}
</style>
<path id="b25TnLoyhE" class="st0" d="M367,169.9c0.7-0.2,1.1-0.3,1.3-0.3c23.4-5.8,39.8-26.8,39.8-50.9c0-8.2,0,8.2,0,0
	c0-24.8-14.9-47.2-37.8-56.9c-31.4-13.2,7.4,3.1-0.2-0.1C269.6,19.5,156.4,19.5,56,61.7c-7.6,3.2,31.2-13.1-0.2,0.1
	C32.9,71.4,18,93.8,18,118.6c0,8.2,0-8.2,0,0c0,24.1,16.4,45.1,39.8,50.9c0.2,0,0.6,0.1,1.3,0.3c0,98.2,0,159.6,0,184.2
	c0,5.8,4.7,10.5,10.5,10.5c59.5-0.2,226.8-0.8,286.1-1c6.2,0,11.3-5.1,11.3-11.3C367,327.9,367,267.1,367,169.9z"/>
<g>
	<defs>
		<path id="SVGID_1_" d="M367,169.9c0.7-0.2,1.1-0.3,1.3-0.3c23.4-5.8,39.8-26.8,39.8-50.9c0-8.2,0,8.2,0,0
			c0-24.8-14.9-47.2-37.8-56.9c-31.4-13.2,7.4,3.1-0.2-0.1C269.6,19.5,156.4,19.5,56,61.7c-7.6,3.2,31.2-13.1-0.2,0.1
			C32.9,71.4,18,93.8,18,118.6c0,8.2,0-8.2,0,0c0,24.1,16.4,45.1,39.8,50.9c0.2,0,0.6,0.1,1.3,0.3c0,98.2,0,159.6,0,184.2
			c0,5.8,4.7,10.5,10.5,10.5c59.5-0.2,226.8-0.8,286.1-1c6.2,0,11.3-5.1,11.3-11.3C367,327.9,367,267.1,367,169.9z"/>
	</defs>
	<clipPath id="SVGID_2_">
		<use xlink:href="#SVGID_1_"  style="overflow:visible;"/>
	</clipPath>
	<path id="b25TnLoyhE_1_" class="st1" d="M367,169.9c0.7-0.2,1.1-0.3,1.3-0.3c23.4-5.8,39.8-26.8,39.8-50.9c0-8.2,0,8.2,0,0
		c0-24.8-14.9-47.2-37.8-56.9c-31.4-13.2,7.4,3.1-0.2-0.1C269.6,19.5,156.4,19.5,56,61.7c-7.6,3.2,31.2-13.1-0.2,0.1
		C32.9,71.4,18,93.8,18,118.6c0,8.2,0-8.2,0,0c0,24.1,16.4,45.1,39.8,50.9c0.2,0,0.6,0.1,1.3,0.3c0,98.2,0,159.6,0,184.2
		c0,5.8,4.7,10.5,10.5,10.5c59.5-0.2,226.8-0.8,286.1-1c6.2,0,11.3-5.1,11.3-11.3C367,327.9,367,267.1,367,169.9z"/>
</g>
<path id="evaJx1v" class="st2" d="M82,344.1c0,2.2-2.6,4-5.8,4s-5.8-1.8-5.8-4s2.6-4,5.8-4S82,341.9,82,344.1z"/>
<path id="d33JKGBeK" class="st2" d="M269.5,63.1c0,2.2-2.6,4-5.8,4s-5.8-1.8-5.8-4c0-2.2,2.6-4,5.8-4S269.5,60.9,269.5,63.1z"/>
<path id="a1c0QDv3A4" class="st3" d="M252.1,36.5l0.3,0l0.3,0l0.2,0l0.2,0.1l0.2,0.1l0.2,0.1l0.2,0.1l0.2,0.1l0.2,0.1l0.2,0.1
	l0.2,0.1l0.2,0.1l0.2,0.1l0.2,0.2l0.2,0.2l0.2,0.2l0.2,0.2l0.2,0.2l0.2,0.2l0.2,0.2l0.2,0.2l0.1,0.2l0.1,0.2l0.1,0.2l0.1,0.2
	l0.1,0.2l0.1,0.3l0.1,0.3l5,17.1l1,3.6l1.1,3.6l1.1,3.6l1.1,3.5l1.1,3.6l1.2,3.5l1.2,3.5l1.2,3.5l1.2,3.5l1.2,3.5l1.3,3.5l1.3,3.5
	l1.3,3.5l1.3,3.5l1.4,3.5l1.4,3.5l1.4,3.5l1.4,3.4l1.4,3.4l1.5,3.4l1.5,3.4l1.5,3.4l1.5,3.4l1.5,3.4l1.6,3.4l1.6,3.4l1.6,3.4
	l1.6,3.3l1.6,3.3l1.7,3.3l1.7,3.3l1.7,3.3l1.7,3.3l1.8,3.3l1.8,3.3l1.8,3.3l1.8,3.3l1.8,3.2l1.9,3.2l1.9,3.2L321,194l1.5,2.6
	l1.5,2.6l1.5,2.6l1.5,2.7l1.5,2.7l1.4,2.7l1.4,2.7l1.4,2.7l1.4,2.7l1.4,2.7l1.4,2.7l1.4,2.7l1.3,2.7l1.3,2.7l1.3,2.8l1.3,2.8
	l1.3,2.8l1.2,2.8l1.2,2.8l1.2,2.8l1.2,2.8l1.2,2.8l1.2,2.8l1.1,2.8l1.1,2.8l1.1,2.8l1.1,2.8l1.1,2.8l1,2.8l1,2.9l1,2.9l1,2.9l1,2.9
	l1,2.9l1,2.9l0.9,2.9l0.9,2.9l0.7,2.4v50l-31.1,15.4l-51.8,0.2l-4.2-14.5l-0.9-2.9l-0.9-2.9l-0.9-2.9l-0.9-2.9l-0.9-2.9l-1-2.9
	l-1-2.9l-1-2.9l-1-2.9l-1-2.9l-1-2.9l-1.1-2.9l-1.1-2.9l-1.1-2.9l-1.1-2.8l-1.1-2.9l-1.1-2.8l-1.2-2.8l-1.2-2.8l-1.2-2.8l-1.2-2.8
	l-1.2-2.8l-1.3-2.8l-1.3-2.8l-1.3-2.8l-1.3-2.8l-1.3-2.8l-1.3-2.8l-1.4-2.7l-1.4-2.7l-1.4-2.7l-1.4-2.7l-1.4-2.7l-1.5-2.7l-1.4-2.7
	l-1.5-2.7l-1.5-2.7l-1.5-2.7l-1.5-2.7l-1.5-2.6l0.2,0.3l-1.9-3.2l-1.9-3.2l-1.8-3.2l-1.8-3.2l-1.8-3.2l-1.8-3.2l-1.7-3.3l-1.7-3.3
	l-1.7-3.3l-1.7-3.3l-1.7-3.3l-1.6-3.3l-1.6-3.3l-1.6-3.3L206,189l-1.6-3.4l-1.5-3.4l-1.5-3.4l-1.5-3.4l-1.5-3.4l-1.5-3.4l-1.4-3.4
	l-1.4-3.4l-1.4-3.4l-1.4-3.4l-1.3-3.4l-1.3-3.5l-1.3-3.5l-1.3-3.5l-1.3-3.5l-1.2-3.5l-1.2-3.5l-1.2-3.5l-1.2-3.5l-1.1-3.5l-1.1-3.5
	l-1.1-3.5l-1.1-3.5l-1.1-3.5l-1-3.5l-5.2-18l-0.1-0.3l-0.1-0.3l-0.1-0.3l0-0.3l0-0.3l0-0.3l0-0.3l0-0.3l0-0.3l0-0.3l0-0.3l0-0.3
	l0-0.3l0.1-0.3l0.1-0.3l0.1-0.3l0.1-0.3l0.1-0.3l0.1-0.3l0.1-0.2l0.1-0.2l0.1-0.2l0.1-0.2l0.1-0.2l0.1-0.2l0.2-0.2l0.2-0.2l0.2-0.2
	l0.2-0.2l0.2-0.2l0.2-0.2l0.2-0.2l0.2-0.2l0.2-0.2l0.2-0.2l0.2-0.2l0.2-0.2l0.2-0.2l0.2-0.1l0.3-0.1L249,37.1l0.2-0.1l0.2-0.1
	l0.3-0.1l0.3-0.1l0.3-0.1l0.3-0.1l0.3-0.1l0.3,0l0.3,0l0.3,0h0.3L252.1,36.5z"/>
<path id="b1ovGVeP4" class="st4" d="M271,94.1l1.4,0.2l1.4,0.2l1.4,0.3l1.4,0.3l1.4,0.4l1.4,0.4l1.3,0.5l1.3,0.5l1.3,0.6l1.2,0.6
	l1.2,0.7l1.2,0.7l1.2,0.8l1.1,0.8l1.1,0.8l1.1,0.9l1,0.9l1,1l1,1l0.9,1l0.9,1.1l0.6,0.8l0.7-0.4l1.2-0.6l1.3-0.6l1.3-0.5l1.3-0.5
	l1.4-0.4l1.4-0.4l1.4-0.3l1.4-0.3l1.4-0.2l1.4-0.2l1.5-0.1l1.5,0l1.5,0l1.5,0.1l1.4,0.2l1.4,0.2l1.4,0.3l1.4,0.3l1.4,0.4l1.4,0.4
	l1.3,0.5l1.3,0.5l1.3,0.6l1.2,0.6l1.2,0.7l1.2,0.7l1.2,0.8l1.1,0.8l1.1,0.8l1.1,0.9l1,0.9l1,1l1,1l0.9,1l0.9,1.1l0.8,1.1l0.8,1.1
	l0.8,1.2l0.7,1.2l0.7,1.2l0.6,1.2l0.6,1.3l0.5,1.3l0.5,1.3l0.4,1.3l0.4,1.4l0.3,1.4l0.3,1.4l0.2,1.4l0.1,1.4l0.1,1.5l0,1.5l0,1.5
	l-0.1,1.5l-0.1,1.4l-0.2,1.4l-0.3,1.4l-0.3,1.4l-0.4,1.4l-0.4,1.4l-0.5,1.3l-0.5,1.3l-0.6,1.3l-0.6,1.2l-0.6,1h0.1l1.5,0.1l1.4,0.1
	l1.4,0.2l1.4,0.3l1.4,0.3l1.4,0.4l1.4,0.4l1.3,0.5l1.3,0.5l1.3,0.6l1.2,0.6l1.2,0.7l1.2,0.7l1.2,0.8l1.1,0.8l1.1,0.8l1.1,0.9l1,0.9
	l1,1l1,1l0.9,1l0.9,1.1l0.8,1.1l0.8,1.1l0.8,1.2l0.7,1.2l0.7,1.2l0.6,1.2l0.6,1.3l0.5,1.3l0.5,1.3l0.4,1.4l0.4,1.4l0.3,1.4l0.3,1.4
	l0.2,1.4l0.1,1.5l0.1,1.5l0,1.5l0,1.5l-0.1,1.5l-0.1,1.4l-0.2,1.4l-0.3,1.4l-0.3,1.4l-0.4,1.4l-0.4,1.4l-0.5,1.3l-0.5,1.3l-0.6,1.3
	l-0.6,1.2l-0.7,1.2l-0.7,1.2l-0.8,1.2l-0.8,1.1l-0.8,1.1l-0.9,1.1l-0.9,1l-1,1l-1,0.9l-1,0.9l-1.1,0.9l-1.1,0.8l-1.1,0.8l-1.2,0.8
	l-1.2,0.7l-1.2,0.7l-0.3,0.2l0.9,0.8l1,1l0.9,1l0.9,1.1l0.8,1.1l0.8,1.1l0.8,1.2l0.7,1.2l0.7,1.2l0.6,1.2l0.6,1.3l0.5,1.3l0.5,1.3
	l0.4,1.4l0.4,1.4l0.3,1.4l0.3,1.4l0.2,1.4l0.2,1.4l0.1,1.5l0,1.5l0,1.5l-0.1,1.5l-0.2,1.4l-0.2,1.4l-0.3,1.4l-0.3,1.4l-0.4,1.4
	l-0.4,1.4l-0.5,1.3l-0.5,1.3l-0.6,1.3l-0.6,1.2l-0.7,1.2l-0.7,1.2l-0.8,1.2l-0.8,1.1l-0.8,1.1l-0.9,1.1l-0.9,1l-1,1l-1,1l-1,0.9
	l-1.1,0.9l-1.1,0.8l-1.1,0.8l-1.2,0.8l-1.2,0.7l-1.2,0.7l-1.3,0.6l-1.3,0.6l-1.3,0.5l-1.3,0.5l-1.4,0.4l-1.4,0.4l-1.4,0.3l-1.4,0.3
	l-0.2,0l0.2,0.3L84.1,312v0l-0.6,0l-1.5,0l-1.5,0l-1.5-0.1l-1.4-0.1l-1.4-0.2l-1.4-0.3l-1.4-0.3l-1.4-0.4l-1.3-0.4l-1.3-0.5
	l-1.3-0.5l-1.3-0.6l-1.2-0.6l-1.2-0.7l-1.2-0.7l-1.2-0.8l-1.1-0.8l-1.1-0.8l-1.1-0.9l-1-0.9l-1-1l-1-1l-0.9-1l-0.9-1.1l-0.8-1.1
	l-0.8-1.1l-0.8-1.2l-0.7-1.2l-0.7-1.2l-0.6-1.2l-0.6-1.3l-0.5-1.3l-0.5-1.3l-0.4-1.4l-0.4-1.4l-0.3-1.4l-0.3-1.4l-0.2-1.4l-0.2-1.4
	l-0.1-1.5l0-1.5l0-1.5l0.1-1.5l0.2-1.4l0.2-1.4l0.3-1.4l0.3-1.4l0.4-1.4l0.4-1.4l0.5-1.3l0.5-1.3l0.6-1.3l0.2-0.4l0,0l-1-1l-1-1
	l-0.9-1l-0.9-1.1l-0.8-1.1l-0.8-1.1l-0.8-1.2l-0.7-1.2l-0.7-1.2l-0.6-1.3l-0.6-1.3l-0.5-1.3l-0.5-1.3l-0.4-1.3l-0.4-1.4l-0.3-1.4
	l-0.3-1.4l-0.2-1.4l-0.2-1.4l-0.1-1.5l0-1.5l0-1.5l0.1-1.5l0.2-1.5l0.2-1.4l0.3-1.4l0.3-1.4l0.4-1.4l0.4-1.4l0.5-1.3l0.5-1.3
	l0.6-1.3l0.6-1.2l0.7-1.2l0.7-1.2l0.8-1.2l0.8-1.1l0.8-1.1l0.9-1.1l0.9-1l1-1l1-1l1-0.9l1.1-0.9l1.1-0.8l1.1-0.8l1.2-0.8l1.2-0.7
	l1.2-0.7l1.2-0.6l1.3-0.6l1.3-0.5l0.8-0.3l0.1-0.9l0.2-1.4l0.2-1.4l0.3-1.4l0.3-1.4l0.4-1.4l0.4-1.4l0.5-1.3l0.5-1.3l0.6-1.3
	l0.6-1.2l0.7-1.2l0.7-1.2l0.8-1.2l0.8-1.1l0.8-1.1l0.9-1.1l0.9-1l1-1l1-1l1-0.9l1.1-0.9l1.1-0.8l1.1-0.8l1.2-0.8l1.2-0.7l1.2-0.7
	l1.2-0.6l1.3-0.6l1.3-0.5l0.8-0.3L250,98.8l0.3-0.2l1.2-0.7l1.2-0.6l1.3-0.6l1.3-0.5l1.3-0.5l1.4-0.4l1.4-0.4l1.4-0.3l1.4-0.3
	l1.4-0.2l1.4-0.2l1.5-0.1l1.5,0l1.5,0L271,94.1z"/>
<path id="b1ovGVeP4_1_" class="st5" d="M271,94.1l1.4,0.2l1.4,0.2l1.4,0.3l1.4,0.3l1.4,0.4l1.4,0.4l1.3,0.5l1.3,0.5l1.3,0.6l1.2,0.6
	l1.2,0.7l1.2,0.7l1.2,0.8l1.1,0.8l1.1,0.8l1.1,0.9l1,0.9l1,1l1,1l0.9,1l0.9,1.1l0.6,0.8l0.7-0.4l1.2-0.6l1.3-0.6l1.3-0.5l1.3-0.5
	l1.4-0.4l1.4-0.4l1.4-0.3l1.4-0.3l1.4-0.2l1.4-0.2l1.5-0.1l1.5,0l1.5,0l1.5,0.1l1.4,0.2l1.4,0.2l1.4,0.3l1.4,0.3l1.4,0.4l1.4,0.4
	l1.3,0.5l1.3,0.5l1.3,0.6l1.2,0.6l1.2,0.7l1.2,0.7l1.2,0.8l1.1,0.8l1.1,0.8l1.1,0.9l1,0.9l1,1l1,1l0.9,1l0.9,1.1l0.8,1.1l0.8,1.1
	l0.8,1.2l0.7,1.2l0.7,1.2l0.6,1.2l0.6,1.3l0.5,1.3l0.5,1.3l0.4,1.3l0.4,1.4l0.3,1.4l0.3,1.4l0.2,1.4l0.1,1.4l0.1,1.5l0,1.5l0,1.5
	l-0.1,1.5l-0.1,1.4l-0.2,1.4l-0.3,1.4l-0.3,1.4l-0.4,1.4l-0.4,1.4l-0.5,1.3l-0.5,1.3l-0.6,1.3l-0.6,1.2l-0.6,1h0.1l1.5,0.1l1.4,0.1
	l1.4,0.2l1.4,0.3l1.4,0.3l1.4,0.4l1.4,0.4l1.3,0.5l1.3,0.5l1.3,0.6l1.2,0.6l1.2,0.7l1.2,0.7l1.2,0.8l1.1,0.8l1.1,0.8l1.1,0.9l1,0.9
	l1,1l1,1l0.9,1l0.9,1.1l0.8,1.1l0.8,1.1l0.8,1.2l0.7,1.2l0.7,1.2l0.6,1.2l0.6,1.3l0.5,1.3l0.5,1.3l0.4,1.4l0.4,1.4l0.3,1.4l0.3,1.4
	l0.2,1.4l0.1,1.5l0.1,1.5l0,1.5l0,1.5l-0.1,1.5l-0.1,1.4l-0.2,1.4l-0.3,1.4l-0.3,1.4l-0.4,1.4l-0.4,1.4l-0.5,1.3l-0.5,1.3l-0.6,1.3
	l-0.6,1.2l-0.7,1.2l-0.7,1.2l-0.8,1.2l-0.8,1.1l-0.8,1.1l-0.9,1.1l-0.9,1l-1,1l-1,0.9l-1,0.9l-1.1,0.9l-1.1,0.8l-1.1,0.8l-1.2,0.8
	l-1.2,0.7l-1.2,0.7l-0.3,0.2l0.9,0.8l1,1l0.9,1l0.9,1.1l0.8,1.1l0.8,1.1l0.8,1.2l0.7,1.2l0.7,1.2l0.6,1.2l0.6,1.3l0.5,1.3l0.5,1.3
	l0.4,1.4l0.4,1.4l0.3,1.4l0.3,1.4l0.2,1.4l0.2,1.4l0.1,1.5l0,1.5l0,1.5l-0.1,1.5l-0.2,1.4l-0.2,1.4l-0.3,1.4l-0.3,1.4l-0.4,1.4
	l-0.4,1.4l-0.5,1.3l-0.5,1.3l-0.6,1.3l-0.6,1.2l-0.7,1.2l-0.7,1.2l-0.8,1.2l-0.8,1.1l-0.8,1.1l-0.9,1.1l-0.9,1l-1,1l-1,1l-1,0.9
	l-1.1,0.9l-1.1,0.8l-1.1,0.8l-1.2,0.8l-1.2,0.7l-1.2,0.7l-1.3,0.6l-1.3,0.6l-1.3,0.5l-1.3,0.5l-1.4,0.4l-1.4,0.4l-1.4,0.3l-1.4,0.3
	l-0.2,0l0.2,0.3L84.1,312v0l-0.6,0l-1.5,0l-1.5,0l-1.5-0.1l-1.4-0.1l-1.4-0.2l-1.4-0.3l-1.4-0.3l-1.4-0.4l-1.3-0.4l-1.3-0.5
	l-1.3-0.5l-1.3-0.6l-1.2-0.6l-1.2-0.7l-1.2-0.7l-1.2-0.8l-1.1-0.8l-1.1-0.8l-1.1-0.9l-1-0.9l-1-1l-1-1l-0.9-1l-0.9-1.1l-0.8-1.1
	l-0.8-1.1l-0.8-1.2l-0.7-1.2l-0.7-1.2l-0.6-1.2l-0.6-1.3l-0.5-1.3l-0.5-1.3l-0.4-1.4l-0.4-1.4l-0.3-1.4l-0.3-1.4l-0.2-1.4l-0.2-1.4
	l-0.1-1.5l0-1.5l0-1.5l0.1-1.5l0.2-1.4l0.2-1.4l0.3-1.4l0.3-1.4l0.4-1.4l0.4-1.4l0.5-1.3l0.5-1.3l0.6-1.3l0.2-0.4l0,0l-1-1l-1-1
	l-0.9-1l-0.9-1.1l-0.8-1.1l-0.8-1.1l-0.8-1.2l-0.7-1.2l-0.7-1.2l-0.6-1.3l-0.6-1.3l-0.5-1.3l-0.5-1.3l-0.4-1.3l-0.4-1.4l-0.3-1.4
	l-0.3-1.4l-0.2-1.4l-0.2-1.4l-0.1-1.5l0-1.5l0-1.5l0.1-1.5l0.2-1.5l0.2-1.4l0.3-1.4l0.3-1.4l0.4-1.4l0.4-1.4l0.5-1.3l0.5-1.3
	l0.6-1.3l0.6-1.2l0.7-1.2l0.7-1.2l0.8-1.2l0.8-1.1l0.8-1.1l0.9-1.1l0.9-1l1-1l1-1l1-0.9l1.1-0.9l1.1-0.8l1.1-0.8l1.2-0.8l1.2-0.7
	l1.2-0.7l1.2-0.6l1.3-0.6l1.3-0.5l0.8-0.3l0.1-0.9l0.2-1.4l0.2-1.4l0.3-1.4l0.3-1.4l0.4-1.4l0.4-1.4l0.5-1.3l0.5-1.3l0.6-1.3
	l0.6-1.2l0.7-1.2l0.7-1.2l0.8-1.2l0.8-1.1l0.8-1.1l0.9-1.1l0.9-1l1-1l1-1l1-0.9l1.1-0.9l1.1-0.8l1.1-0.8l1.2-0.8l1.2-0.7l1.2-0.7
	l1.2-0.6l1.3-0.6l1.3-0.5l0.8-0.3L250,98.8l0.3-0.2l1.2-0.7l1.2-0.6l1.3-0.6l1.3-0.5l1.3-0.5l1.4-0.4l1.4-0.4l1.4-0.3l1.4-0.3
	l1.4-0.2l1.4-0.2l1.5-0.1l1.5,0l1.5,0L271,94.1z"/>
<path id="a5aEkQ4goS" class="st3" d="M135.2,50.5l0.3,0l0.2,0l0.3,0l0.2,0.1l0.2,0.1l0.2,0.1l0.2,0.1l0.2,0.1l0.2,0.1l0.2,0.1
	l0.2,0.1l0.2,0.1l0.2,0.1l0.2,0.2l0.2,0.2l0.2,0.2l0.2,0.2l0.2,0.2l0.2,0.2l0.2,0.2l0.2,0.2l0.1,0.2l0.1,0.2l0.1,0.2l0.1,0.2
	l0.1,0.2l0.1,0.3l0.1,0.3l4.9,17.1l1,3.6l1.1,3.6l1.1,3.6l1.1,3.5l1.1,3.6l1.2,3.5l1.2,3.5l1.2,3.5l1.2,3.5l1.2,3.5l1.3,3.5l1.3,3.5
	l1.3,3.5l1.3,3.5l1.4,3.5l1.4,3.5l1.4,3.5l1.4,3.4l1.4,3.4l1.5,3.4l1.5,3.4l1.5,3.4l1.5,3.4l1.6,3.4l1.6,3.4l1.6,3.4l1.6,3.4
	l1.6,3.3l1.7,3.3l1.7,3.3l1.7,3.3l1.7,3.3l1.7,3.3l1.8,3.3l1.8,3.3l1.8,3.3l1.8,3.3l1.8,3.2l1.9,3.2l1.9,3.2l-0.2-0.3l1.5,2.6
	l1.5,2.6l1.5,2.6l1.5,2.7l1.5,2.7l1.4,2.7l1.4,2.7l1.4,2.7l1.4,2.7l1.4,2.7l1.4,2.7l1.3,2.7l1.3,2.7l1.3,2.7l1.3,2.8l1.3,2.8
	l1.3,2.8l1.2,2.8l1.2,2.8l1.2,2.8l1.2,2.8l1.2,2.8l1.1,2.8l1.1,2.8l1.1,2.8l1.1,2.8l1.1,2.8l1.1,2.8l1.1,2.8l1,2.9l1,2.9l1,2.9
	l1,2.9l1,2.9l0.9,2.9l0.9,2.9l0.9,2.9l0.9,2.9l0.9,2.9l0.9,2.9l8.8,30.4l0.1,0.3l0.1,0.3l0,0.3l0,0.3l0,0.3l0,0.3l0,0.3l0,0.3l0,0.3
	l0,0.3l0,0.3l0,0.3l0,0.3l-0.1,0.3l-0.1,0.3l-0.1,0.3l-0.1,0.3l-0.1,0.3l-0.1,0.3l-0.1,0.3l-0.1,0.3l-0.1,0.3l-0.1,0.3l-0.2,0.3
	l-0.1,0.2l-0.2,0.2l-0.2,0.2l-0.2,0.2l-0.2,0.2l-0.2,0.2l-0.2,0.2l-0.2,0.2l-0.2,0.2l-0.2,0.2l-0.2,0.2l-0.2,0.2l-0.3,0.2l-0.3,0.2
	l-0.3,0.1l-0.3,0.1l-8.3,4.1l-85,0.3L163,364l-0.9-2.9l-0.9-2.9l-0.9-2.9l-0.9-2.9l-0.9-2.9l-0.9-2.9l-1-2.9l-1-2.9l-1-2.9l-1-2.9
	l-1-2.9l-1.1-2.9l-1.1-2.9l-1.1-2.9l-1.1-2.8l-1.1-2.9l-1.1-2.8l-1.2-2.8l-1.2-2.8l-1.2-2.8l-1.2-2.8l-1.2-2.8l-1.2-2.8l-1.3-2.8
	l-1.3-2.8l-1.3-2.8l-1.3-2.8l-1.3-2.8l-1.4-2.7l-1.4-2.7L128,276l-1.4-2.7l-1.4-2.7l-1.4-2.7l-1.5-2.7l-1.5-2.7l-1.5-2.7l-1.5-2.7
	l-1.5-2.7l-1.6-2.6l0.2,0.3l-1.9-3.2l-1.8-3.2l-1.8-3.2l-1.8-3.2l-1.8-3.2l-1.8-3.2l-1.7-3.3l-1.7-3.3l-1.7-3.3l-1.7-3.3l-1.7-3.3
	l-1.6-3.3l-1.6-3.3l-1.6-3.3l-1.6-3.3l-1.6-3.4l-1.5-3.4l-1.5-3.4l-1.5-3.4l-1.5-3.4l-1.4-3.4l-1.4-3.4l-1.4-3.4l-1.4-3.4l-1.4-3.4
	l-1.4-3.4l-1.3-3.5l-1.3-3.5l-1.3-3.5l-1.3-3.5l-1.2-3.5l-1.2-3.5l-1.2-3.5l-1.2-3.5l-1.2-3.5l-1.1-3.5l-1.1-3.5l-1.1-3.5l-1.1-3.5
	l-1-3.5l-5.2-18l-0.1-0.3L51.2,98l-0.1-0.3l0-0.3l0-0.3l0-0.3l0-0.3v-0.3l0-0.3l0-0.3l0-0.3l0-0.3l0-0.3l0.1-0.3l0.1-0.3l0.1-0.3
	l0.1-0.3l0.1-0.3l0.1-0.3l0.1-0.2l0.1-0.2l0.1-0.2l0.1-0.2l0.1-0.2l0.2-0.2l0.2-0.2l0.2-0.2l0.2-0.2l0.2-0.2l0.2-0.2l0.2-0.2
	l0.2-0.2l0.2-0.2l0.2-0.2l0.2-0.2l0.2-0.2l0.2-0.2l0.2-0.2l0.2-0.1l0.2-0.1l76.7-38.1l0.3-0.1l0.2-0.1l0.3-0.1l0.3-0.1l0.3-0.1
	l0.3-0.1l0.3-0.1l0.3,0l0.3,0l0.3,0h0.3L135.2,50.5z"/>
<path id="epe3LT2fS" class="st2" d="M60.8,138c0,3.9-4.5,7-10,7s-10-3.1-10-7s4.5-7,10-7S60.8,134.1,60.8,138z"/>
<path id="cH2OR5HiX" class="st6" d="M169.9,140.3l1.5,3.4l1.5,3.4l1.5,3.4l1.5,3.4l1.6,3.4l1.6,3.4l1.6,3.4l1.6,3.4l1.6,3.4l1.7,3.3
	l1.7,3.3l1.7,3.3l1.7,3.3l1.7,3.3l1.8,3.3l1.8,3.3l1.8,3.3l1.8,3.2l1.8,3.2l1.9,3.2l1.9,3.2l-0.2-0.3l1.5,2.6l1.5,2.6l1.5,2.7
	l1.5,2.6l1.5,2.7l1.4,2.7l1.4,2.7l1.4,2.7l1.4,2.7l1.4,2.7l1.4,2.7l1.3,2.7l1.3,2.7l1.3,2.7l1.3,2.7l1.3,2.8l1.3,2.8l1.2,2.8
	l1.2,2.8l1.2,2.8l1.2,2.8l1.2,2.8l1.1,2.8l1.1,2.8l1.1,2.8l1.1,2.8l1.1,2.8l1.1,2.8l1.1,2.8l1,2.9l1,2.9l0.9,2.7l-102.6,9.6
	l-0.8-1.9l-1.2-2.8l-1.2-2.8l-1.3-2.8l-1.3-2.8l-1.3-2.8l-1.3-2.8l-1.3-2.8l-1.4-2.8l-1.4-2.7l-1.4-2.7l-1.4-2.7l-1.4-2.7l-1.4-2.7
	l-1.5-2.7l-1.5-2.7l-1.5-2.7l-1.5-2.7l-1.5-2.7l-1.6-2.7l0.2,0.3l-1.9-3.2l-1.8-3.2l-1.8-3.2l-1.8-3.2l-1.8-3.2l-1.8-3.2l-1.7-3.3
	l-1.7-3.3l-1.7-3.3l-1.7-3.3l-1.7-3.3l-1.6-3.3l-1.6-3.3l-1.6-3.3l-1.6-3.3l-1.6-3.3l-1.5-3.4l-1.5-3.4l-1.5-3.4l-1.5-3.4l-1.4-3.4
	l-1.4-3.4l-1.4-3.4l-1.4-3.3l0.9-0.7l1.1-0.8l1.2-0.8l1.2-0.7l1.2-0.7l1.2-0.6l1.3-0.6l1.3-0.5l0.8-0.3l80.8-34.1l0.9,2.1
	L169.9,140.3z"/>
<path id="bQ3fShOZT" class="st7" d="M105.1,250.3c-25-42.6-44.6-88.1-58.3-135.5c-1.4-4.9,0-0.1-5.2-18c-1.1-3.7,0.7-7.7,4.1-9.4
	c16.6-8.2,60.2-29.9,76.7-38.1c3.4-1.7,7.4,0.1,8.4,3.7c5.2,17.8,3.6,12.3,4.9,17.1c13.9,47.7,33.6,93.5,58.7,136.4
	c6.1,10.5-7.7-13.1-0.2-0.3c20.5,35,36.6,72.3,47.9,111.2c2.2,7.5,3.6,12.6,8.8,30.4c1.2,4-0.7,8.2-4.4,10.1
	c-16.5,8.2-58.9,29.2-75.2,37.3c-3.9,1.9-8.6-0.1-9.8-4.3c-5.1-17.6-6.2-21.4-8.4-28.8c-11.4-39.2-27.6-76.9-48.3-112.1
	C97.4,237.3,111.3,260.9,105.1,250.3z"/>
<path id="c6PBiTgTfX" class="st8" d="M135.4,234.5c-24.8-42.2-44.2-87.4-57.8-134.4c-1-3.3-3.4-11.7-7.3-25L98.7,61
	c4.1,14.1,6.6,22.9,7.6,26.4c13.7,47.7,33.9,93.3,60,135.6c6.4,10.4-7.9-12.8-0.1-0.1c21.3,34.4,37.8,71.6,49.2,110.5
	c1.4,4.6,4.8,16.2,10.2,34.8l-31.3,15.5c-5.7-19.6-9.3-31.9-10.7-36.8c-11.4-39.2-27.6-76.9-48.3-112.2
	C128,222,141.6,245.2,135.4,234.5z"/>
<path id="b3LcuoPIDe" class="st6" d="M265.7,96.2l1.4,0.2l1.4,0.2l0.3,0.1l1,2.8l1.3,3.5l1.3,3.5l1.3,3.5l1.4,3.5l1.4,3.5l1.4,3.4
	l1.4,3.4l1.4,3.4l1.5,3.4l1.5,3.4l1.5,3.4l1.5,3.4l1.5,3.4l1.6,3.4l1.6,3.4l1.6,3.4l1.6,3.3l1.6,3.3l1.7,3.3l1.7,3.3l1.7,3.3
	l1.7,3.3l1.8,3.3l1.8,3.3l1.8,3.3l1.8,3.3l1.8,3.2l1.9,3.2l1.9,3.2l-0.2-0.3l1.5,2.6l1.5,2.6l1.5,2.6l1.5,2.7l1.5,2.7l1.4,2.7
	l1.4,2.7l1.4,2.7l1.4,2.7l1.4,2.7l1.4,2.7l1.4,2.7l1.3,2.7l1.3,2.7l1.3,2.8l1.3,2.8l1.3,2.8l1.2,2.8l1.2,2.8l1.2,2.8l1.2,2.8
	l1.2,2.8l1.2,2.8l1.1,2.8l1.1,2.8l1.1,2.8l1.1,2.8l1.1,2.8l1,2.8l1,2.9l0.6,1.6l-1,0.9l-1.1,0.9l-1.1,0.8l-1.1,0.8l-1.2,0.8
	l-1.2,0.7l-1.2,0.7l-1.3,0.6l-1.3,0.6l-1.3,0.5l-1.3,0.5l-1.4,0.4L339,289l-1.4,0.3l-1.4,0.3l-0.2,0l0.2,0.3l-81.1,7.6L254,295
	l-1.2-2.8l-1.2-2.8l-1.3-2.8l-1.3-2.8l-1.3-2.8l-1.3-2.8l-1.3-2.8l-1.3-2.8l-1.4-2.7l-1.4-2.7l-1.4-2.7l-1.4-2.7l-1.4-2.7l-1.5-2.7
	l-1.4-2.7l-1.5-2.7l-1.5-2.7l-1.5-2.7l-1.5-2.7l-1.5-2.6l0.2,0.3l-1.9-3.2l-1.9-3.2L221,231l-1.8-3.2l-1.8-3.2l-1.8-3.2l-1.7-3.3
	l-1.7-3.3l-1.7-3.3l-1.7-3.3l-1.7-3.3l-1.6-3.3l-1.6-3.3l-1.6-3.3l-1.6-3.3l-1.6-3.4l-1.5-3.4l-1.5-3.4l-1.5-3.4l-1.5-3.4l-1.5-3.4
	l-1.4-3.4l-1.4-3.4l-1.4-3.4l-1.4-3.4l-1.3-3.4l-1.3-3.4l-1.3-3.5l-1.3-3.5l-1.3-3.5l-1.2-3.5l-1.2-3.5l-1.2-3.5l68.8-29l0.3-0.2
	l1.2-0.7l1.2-0.6l1.3-0.6l1.3-0.5l1.3-0.5l1.4-0.4l1.4-0.4l1.4-0.3l1.4-0.3l1.4-0.2l1.4-0.2l1.5-0.1l1.5,0l1.5,0L265.7,96.2z"/>
<path id="cBxelpX9Z" class="st7" d="M216.8,235.6c-25-42.6-44.5-88.1-58.3-135.5c-1.4-4.9,0-0.1-5.2-18c-1.1-3.7,0.7-7.7,4.1-9.4
	c16.6-8.3,60.1-29.9,76.7-38.1c3.4-1.7,7.4,0.1,8.5,3.7c5.2,17.8,3.6,12.3,5,17.1c13.8,47.7,33.6,93.5,58.7,136.4
	c6.1,10.5-7.7-13.1-0.2-0.3c20.5,35,36.6,72.3,47.9,111.2c2.2,7.5,3.6,12.6,8.8,30.4c1.2,4-0.7,8.2-4.4,10.1
	c-16.5,8.2-58.8,29.2-75.2,37.3c-3.9,1.9-8.6-0.1-9.8-4.3c-5.1-17.6-6.2-21.4-8.4-28.8c-11.4-39.2-27.6-76.9-48.3-112.2
	C209.1,222.6,223,246.2,216.8,235.6z"/>
<path id="bH53Ufz4y" class="st8" d="M247.2,219.8c-24.8-42.2-44.2-87.4-57.8-134.4c-1-3.3-3.4-11.7-7.3-25l28.4-14.1
	c4.1,14.1,6.6,22.9,7.6,26.4c13.7,47.7,33.9,93.3,60,135.6c6.4,10.4-7.9-12.8,0-0.1c21.3,34.5,37.8,71.6,49.2,110.5
	c1.4,4.6,4.8,16.2,10.2,34.8L306.3,369c-5.7-19.6-9.3-31.9-10.7-36.8c-11.4-39.2-27.6-76.9-48.3-112.1
	C239.9,207.3,253.5,230.5,247.2,219.8z"/>
<path id="c6vUeZbeki" class="st9" d="M340.5,199.5c0,53.3-43.5,96.5-97,96.5s-97-43.2-97-96.5s43.5-96.5,97-96.5
	S340.5,146.2,340.5,199.5z"/>
<path id="h2u4tjU35" class="st10" d="M329.7,191.5c0,49.7-40.3,90-90,90c-49.7,0-90-40.3-90-90s40.3-90,90-90
	C289.3,101.5,329.7,141.8,329.7,191.5z"/>
<path id="h2u4tjU35_1_" class="st11" d="M329.7,191.5c0,49.7-40.3,90-90,90c-49.7,0-90-40.3-90-90s40.3-90,90-90
	C289.3,101.5,329.7,141.8,329.7,191.5z"/>
<path id="d4lz5PFdTB" class="st12" d="M216.2,174.4c-3.2,4.9-4.5,10.4-3.8,16.6c0.6,5.1-1.9,10-6.2,12.6c-6.7,4-22.3,13.3-29.6,17.7
	c-1.9,1.1-4.4,0.1-4.9-2.1c-4.9-21.3-2.4-41.9,7.4-61.7c9.5-19.1,25.1-31.2,46.8-36.6c3.4-0.8,6.7,1.8,6.7,5.3c0,7.2,0,22.8,0,30.3
	c0,3.4-2.1,6.5-5.3,7.7C223.4,165.7,219.7,169.1,216.2,174.4z"/>
<path id="d4lz5PFdTB_1_" class="st13" d="M216.2,174.4c-3.2,4.9-4.5,10.4-3.8,16.6c0.6,5.1-1.9,10-6.2,12.6
	c-6.7,4-22.3,13.3-29.6,17.7c-1.9,1.1-4.4,0.1-4.9-2.1c-4.9-21.3-2.4-41.9,7.4-61.7c9.5-19.1,25.1-31.2,46.8-36.6
	c3.4-0.8,6.7,1.8,6.7,5.3c0,7.2,0,22.8,0,30.3c0,3.4-2.1,6.5-5.3,7.7C223.4,165.7,219.7,169.1,216.2,174.4z"/>
<path id="ap9OEZGDq" class="st0" d="M223.3,143.9c0,4-2.2,7.2-4.9,7.2c-2.7,0-4.9-3.2-4.9-7.2c0-4,2.2-7.2,4.9-7.2
	C221.1,136.7,223.3,139.9,223.3,143.9z"/>
<path id="ag6nrrnOO" class="st0" d="M187.5,188.3c3.4-1.9,7.2-1.5,8.5,0.9c1.3,2.4-0.4,6-3.8,7.9c-3.4,1.9-7.2,1.5-8.5-0.9
	C182.4,193.8,184.1,190.3,187.5,188.3z"/>
<path id="f3JrL3E8vE" class="st0" d="M198.9,158.4c3.2,2.2,4.7,5.8,3.2,8.2c-1.5,2.3-5.3,2.5-8.5,0.3c-3.2-2.2-4.7-5.9-3.2-8.2
	C191.8,156.4,195.6,156.3,198.9,158.4z"/>
<path id="a66PMVbl9" class="st12" d="M267.4,181.2c-2.4-5.2-6.3-9.1-11.6-11.5c-4.7-2.1-7.7-6.8-7.7-12c0-8.1,0-25.4,0-33.9
	c0-3.2,3.1-5.4,6.1-4.4c19.3,6.4,34.6,18.6,45.8,36.8c11.1,18.1,13.5,38.3,7,60.5c-1,3.4-4.9,5-8,3.1c-6-3.6-18.6-11.2-24.8-14.9
	c-3-1.8-4.5-5.2-3.9-8.6C271,192.1,270,187,267.4,181.2z"/>
<path id="a66PMVbl9_1_" class="st13" d="M267.4,181.2c-2.4-5.2-6.3-9.1-11.6-11.5c-4.7-2.1-7.7-6.8-7.7-12c0-8.1,0-25.4,0-33.9
	c0-3.2,3.1-5.4,6.1-4.4c19.3,6.4,34.6,18.6,45.8,36.8c11.1,18.1,13.5,38.3,7,60.5c-1,3.4-4.9,5-8,3.1c-6-3.6-18.6-11.2-24.8-14.9
	c-3-1.8-4.5-5.2-3.9-8.6C271,192.1,270,187,267.4,181.2z"/>
<path id="fMvSix1qT" class="st0" d="M289.2,202.8c-3.3-2-4.9-5.6-3.6-8c1.3-2.4,5.1-2.8,8.5-0.8c3.3,2,4.9,5.6,3.6,8
	C296.4,204.4,292.6,204.8,289.2,202.8z"/>
<path id="a1b4adno0z" class="st0" d="M270.1,148.3c-0.1,4-2.3,7.2-5,7.2c-2.7-0.1-4.8-3.3-4.8-7.3c0.1-4,2.3-7.2,5-7.2
	C268.1,141,270.2,144.3,270.1,148.3z"/>
<path id="dJXeqxjKs" class="st0" d="M289.3,173.5c-3.4,1.8-7.2,1.3-8.4-1.2c-1.2-2.5,0.6-6,4-7.8c3.4-1.8,7.2-1.3,8.4,1.2
	C294.5,168.2,292.8,171.7,289.3,173.5z"/>
<path id="aSpthtmah" class="st12" d="M236.4,223.9c5.6,0.5,10.7-1.1,15.4-4.8c4.1-3.1,9.6-3.4,14-0.8c6.7,4,22.1,13.3,29.5,17.7
	c2,1.2,2.3,4,0.7,5.6c-15.3,15-33.7,23.1-55.1,24.1c-20.6,1-38.5-7-53.9-23.9c-2.4-2.7-1.8-6.9,1.3-8.8c6-3.6,18.6-11.2,24.8-14.9
	c2.9-1.8,6.7-1.4,9.3,0.8C225.5,221.7,230.2,223.4,236.4,223.9z"/>
<path id="aSpthtmah_1_" class="st13" d="M236.4,223.9c5.6,0.5,10.7-1.1,15.4-4.8c4.1-3.1,9.6-3.4,14-0.8c6.7,4,22.1,13.3,29.5,17.7
	c2,1.2,2.3,4,0.7,5.6c-15.3,15-33.7,23.1-55.1,24.1c-20.6,1-38.5-7-53.9-23.9c-2.4-2.7-1.8-6.9,1.3-8.8c6-3.6,18.6-11.2,24.8-14.9
	c2.9-1.8,6.7-1.4,9.3,0.8C225.5,221.7,230.2,223.4,236.4,223.9z"/>
<path id="aoVzaMq7j" class="st0" d="M207.4,232.8c3.3-2,7.1-1.7,8.5,0.8c1.3,2.4-0.3,6-3.6,8c-3.3,2-7.1,1.7-8.5-0.8
	C202.5,238.3,204.1,234.8,207.4,232.8z"/>
<path id="el3VJ9eBk" class="st0" d="M262.4,242.8c-3.3-2.1-4.8-5.7-3.4-8.1c1.4-2.4,5.2-2.7,8.5-0.6c3.3,2.1,4.8,5.7,3.5,8.1
	C269.5,244.6,265.7,244.8,262.4,242.8z"/>
<path id="b2ajF7IgoV" class="st0" d="M231.8,247.5c0.2-4,2.5-7.1,5.2-7c2.7,0.1,4.7,3.5,4.5,7.5c-0.2,4-2.5,7.1-5.2,7
	C233.6,254.8,231.5,251.5,231.8,247.5z"/>
<path id="evEkY0BOv" class="st14" d="M240.5,279.5c0,50.2-40.9,91-91.2,91S58,329.7,58,279.5s40.9-91,91.2-91
	S240.5,229.3,240.5,279.5z"/>
<path id="cObZHilAT" class="st10" d="M228,279.3c0,46.9-38.1,85-85,85s-85-38.1-85-85c0-46.9,38.1-85,85-85S228,232.4,228,279.3z"/>
<path id="cObZHilAT_1_" class="st11" d="M228,279.3c0,46.9-38.1,85-85,85s-85-38.1-85-85c0-46.9,38.1-85,85-85S228,232.4,228,279.3z
	"/>
<path id="a2QWCZ34z" class="st12" d="M121.1,263.7c-2.9,4.3-4.1,9.1-3.4,14.6c0.5,4.7-1.8,9.2-5.8,11.6
	c-6.2,3.6-20.5,11.8-27.2,15.8c-1.8,1-4.1,0.1-4.6-2c-4.5-19-2.2-37.3,6.9-54.9c8.7-17,23.1-27.8,43.2-32.6c3.2-0.8,6.2,1.7,6.2,4.9
	c0,6.4,0,20,0,26.6c0,3.1-2,6-4.9,7C127.7,256,124.3,259,121.1,263.7z"/>
<path id="a2QWCZ34z_1_" class="st13" d="M121.1,263.7c-2.9,4.3-4.1,9.1-3.4,14.6c0.5,4.7-1.8,9.2-5.8,11.6
	c-6.2,3.6-20.5,11.8-27.2,15.8c-1.8,1-4.1,0.1-4.6-2c-4.5-19-2.2-37.3,6.9-54.9c8.7-17,23.1-27.8,43.2-32.6c3.2-0.8,6.2,1.7,6.2,4.9
	c0,6.4,0,20,0,26.6c0,3.1-2,6-4.9,7C127.7,256,124.3,259,121.1,263.7z"/>
<path id="b1akapqQRl" class="st0" d="M127.6,236.5c0,3.6-2,6.5-4.5,6.5c-2.5,0-4.5-2.9-4.5-6.5s2-6.5,4.5-6.5
	C125.6,230,127.6,232.9,127.6,236.5z"/>
<path id="e1bDBu78oz" class="st0" d="M94.6,276.2c3.1-1.7,6.6-1.4,7.8,0.8c1.2,2.2-0.4,5.4-3.5,7.1c-3.1,1.7-6.6,1.4-7.8-0.8
	C89.9,281.1,91.5,277.9,94.6,276.2z"/>
<path id="a33eabUC0r" class="st0" d="M105.1,249.5c3,1.9,4.3,5.2,2.9,7.3c-1.4,2.1-4.9,2.2-7.8,0.3c-3-1.9-4.3-5.2-3-7.3
	C98.6,247.7,102.1,247.5,105.1,249.5z"/>
<path id="e3PMFfQJXL" class="st12" d="M168.2,270.7c-2.2-4.7-5.8-8.1-10.8-10.3c-4.3-1.9-7.1-6.1-7.1-10.8c0-7.2,0-20.2,0-27.2
	c0-4.2,4.2-7.1,8.1-5.8c16.7,5.8,30,16.4,39.8,31.8c10.3,16.1,12.4,34.1,6.5,53.9c-0.9,3.1-4.5,4.6-7.4,2.9
	c-5.5-3.2-17.2-10-22.9-13.3c-2.7-1.6-4.2-4.7-3.6-7.8C171.5,280.4,170.6,275.9,168.2,270.7z"/>
<path id="e3PMFfQJXL_1_" class="st13" d="M168.2,270.7c-2.2-4.7-5.8-8.1-10.8-10.3c-4.3-1.9-7.1-6.1-7.1-10.8c0-7.2,0-20.2,0-27.2
	c0-4.2,4.2-7.1,8.1-5.8c16.7,5.8,30,16.4,39.8,31.8c10.3,16.1,12.4,34.1,6.5,53.9c-0.9,3.1-4.5,4.6-7.4,2.9
	c-5.5-3.2-17.2-10-22.9-13.3c-2.7-1.6-4.2-4.7-3.6-7.8C171.5,280.4,170.6,275.9,168.2,270.7z"/>
<path id="a6n4eYc9Ku" class="st0" d="M188.4,290c-3.1-1.8-4.6-5-3.3-7.2c1.2-2.2,4.8-2.5,7.8-0.7c3.1,1.8,4.6,5,3.3,7.1
	C194.9,291.5,191.4,291.8,188.4,290z"/>
<path id="e8FZSoc6B" class="st0" d="M170.7,241.4c-0.1,3.6-2.1,6.4-4.6,6.4c-2.5-0.1-4.4-3-4.4-6.6c0.1-3.6,2.1-6.4,4.6-6.4
	C168.8,234.9,170.8,237.8,170.7,241.4z"/>
<path id="cntbbiTX" class="st0" d="M188.4,263.9c-3.1,1.6-6.6,1.1-7.8-1.1c-1.1-2.2,0.5-5.3,3.7-7c3.2-1.6,6.6-1.1,7.8,1.1
	S191.6,262.3,188.4,263.9z"/>
<path id="k5racDK7f" class="st12" d="M140.2,306.4c5.1,0.4,9.9-1,14.2-4.3c3.8-2.8,8.8-3.1,12.9-0.7c6.2,3.6,20.4,11.9,27.2,15.8
	c1.8,1.1,2.1,3.5,0.6,5c-14.1,13.4-31,20.6-50.8,21.5c-19,0.9-35.5-6.2-49.7-21.3c-2.2-2.4-1.7-6.2,1.2-7.9
	c5.5-3.2,17.2-10,22.9-13.3c2.7-1.6,6.2-1.3,8.6,0.8C130.2,304.5,134.5,306,140.2,306.4z"/>
<path id="k5racDK7f_1_" class="st13" d="M140.2,306.4c5.1,0.4,9.9-1,14.2-4.3c3.8-2.8,8.8-3.1,12.9-0.7c6.2,3.6,20.4,11.9,27.2,15.8
	c1.8,1.1,2.1,3.5,0.6,5c-14.1,13.4-31,20.6-50.8,21.5c-19,0.9-35.5-6.2-49.7-21.3c-2.2-2.4-1.7-6.2,1.2-7.9
	c5.5-3.2,17.2-10,22.9-13.3c2.7-1.6,6.2-1.3,8.6,0.8C130.2,304.5,134.5,306,140.2,306.4z"/>
<path id="b19Up12IDk" class="st0" d="M113,314.4c3.1-1.8,6.6-1.5,7.8,0.7c1.2,2.2-0.2,5.4-3.3,7.2c-3.1,1.8-6.6,1.5-7.8-0.7
	C108.4,319.4,109.9,316.2,113,314.4z"/>
<path id="b2o8Vfkaqw" class="st0" d="M163.7,323.3c-3-1.8-4.5-5.1-3.2-7.2c1.3-2.1,4.8-2.4,7.8-0.5c3,1.8,4.5,5.1,3.2,7.2
	C170.2,324.9,166.7,325.2,163.7,323.3z"/>
<path id="bkJauN0sS" class="st0" d="M135.4,327.5c0.2-3.6,2.3-6.4,4.8-6.2c2.5,0.1,4.3,3.1,4.2,6.7c-0.2,3.6-2.3,6.4-4.8,6.2
	C137.1,334.1,135.2,331.1,135.4,327.5z"/>
<path id="ci94ujNB3" class="st2" d="M316,73.6c0,2.2-2.6,4-5.8,4s-5.8-1.8-5.8-4c0-2.2,2.6-4,5.8-4S316,71.4,316,73.6z"/>
<path id="aRfwiay5S" class="st2" d="M293.8,84.1c0,2.2-2.6,4-5.8,4s-5.8-1.8-5.8-4c0-2.2,2.6-4,5.8-4S293.8,81.9,293.8,84.1z"/>
<path id="a4nPcHzxYM" class="st2" d="M346.8,90.1c0,3.9-4.5,7-10,7s-10-3.1-10-7s4.5-7,10-7S346.8,86.3,346.8,90.1z"/>
<path id="bXWd9T9Hz" class="st2" d="M379.8,123c0,3.9-4.5,7-10,7s-10-3.1-10-7s4.5-7,10-7S379.8,119.1,379.8,123z"/>
<path id="a4cE12uogc" class="st2" d="M373.8,90c0,2.2-2.6,4-5.8,4s-5.8-1.8-5.8-4s2.6-4,5.8-4S373.8,87.8,373.8,90z"/>
<path id="c1cYSiop" class="st2" d="M40.8,114.1c0,2.2-2.6,4-5.8,4s-5.8-1.8-5.8-4c0-2.2,2.6-4,5.8-4S40.8,111.9,40.8,114.1z"/>
<path id="eVzA9AjMS" class="st2" d="M163.8,52c0,2.2-2.6,4-5.8,4s-5.8-1.8-5.8-4s2.6-4,5.8-4S163.8,49.8,163.8,52z"/>
<path id="f95Li36vet" class="st15" d="M128.9,50.7L41,95"/>
<path id="gdRVfIPre" class="st15" d="M240.5,36.2l-87.9,44.2"/>
<path id="hl8Mzxfwr" class="st16" d="M198.1,207.6c-28.5-18.4-57-22.9-85.5-13.5c-28.5,9.4-48,31.6-58.4,66.7"/>
<path id="bsXWMYzLf" class="st16" d="M295.7,114.8c-26.4-19.8-55.8-24-88.1-12.5c-32.3,11.5-52.8,35.1-61.5,70.9"/>
</svg>
